<svg width="82" height="54" viewBox="0 0 82 54" fill="none" xmlns="http://www.w3.org/2000/svg">
<g clip-path="url(#clip0_399_5074)">
<path fill-rule="evenodd" clip-rule="evenodd" d="M0.611328 38.6133V14.6133H81.1828V38.6133H0.611328ZM39.8342 18.2819H23.9085V35.0304H39.8342V30.2304H28.7256V28.9276H39.8342V24.3847H28.7256V23.0819H39.8342V18.2819ZM48.0799 35.0133H52.897V24.3676H48.0799V35.0133ZM42.3199 23.0647H58.6913V18.2647H42.3199V23.0647ZM15.2342 35.0304C19.5199 35.0304 21.4399 33.0933 21.6628 30.5047C21.8685 28.1561 20.6685 27.1447 19.9485 26.5619C20.7713 25.7561 21.5085 23.8876 21.097 22.1733C20.497 19.7561 18.817 18.2647 14.9428 18.2647H4.26276V35.0304H15.2342ZM15.817 23.0819H9.06276V24.3847H15.817V23.0819ZM15.817 28.9447H9.06276V30.2476H15.817V28.9447ZM71.077 24.4362V18.6505H66.277V24.4362H60.4913V29.2362H66.277V35.0219H71.077V29.2362H76.8628V24.4362H71.077Z" fill="url(#paint0_linear_399_5074)"/>
</g>
<defs>
<linearGradient id="paint0_linear_399_5074" x1="43.4685" y1="36.0419" x2="0.611328" y2="36.0419" gradientUnits="userSpaceOnUse">
<stop stop-color="#F3295E"/>
<stop offset="1" stop-color="#9202DE"/>
</linearGradient>
<clipPath id="clip0_399_5074">
<rect width="80.5714" height="53" fill="white" transform="translate(0.611328 0.113281)"/>
</clipPath>
</defs>
</svg>
