<svg width="32" height="32" viewBox="0 0 32 32" fill="none" xmlns="http://www.w3.org/2000/svg">
<rect width="32" height="32" rx="2" fill="#111111"/>
<path d="M10 6.71231C10 6.31891 10.3189 6 10.7123 6H12.8623C13.2557 6 13.5746 6.31891 13.5746 6.71231V25.2877C13.5746 25.6811 13.2557 26 12.8623 26H10.7123C10.3189 26 10 25.6811 10 25.2877V6.71231Z" fill="white"/>
<path d="M19.0914 6.71231C19.0914 6.31891 19.4103 6 19.8037 6H21.9537C22.3471 6 22.666 6.31891 22.666 6.71231V25.2877C22.666 25.6811 22.3471 26 21.9537 26H19.8037C19.4103 26 19.0914 25.6811 19.0914 25.2877V6.71231Z" fill="white"/>
<path d="M14.5457 6.71231C14.5457 6.31891 14.8646 6 15.258 6H17.408C17.8014 6 18.1203 6.31891 18.1203 6.71231V24.5618C18.1203 24.9552 17.8014 25.2741 17.408 25.2741H15.258C14.8646 25.2741 14.5457 24.9552 14.5457 24.5618V6.71231Z" fill="white"/>
</svg>
