<svg width="73" height="56" viewBox="0 0 73 56" fill="none" xmlns="http://www.w3.org/2000/svg">
<g clip-path="url(#clip0_399_1696)">
<path fill-rule="evenodd" clip-rule="evenodd" d="M14.976 19.5094C15.9132 18.3507 16.3562 16.8853 16.2199 15.4199C14.7886 15.5562 13.4425 16.2549 12.4883 17.3454C11.5341 18.4189 11.057 19.799 11.1422 21.2303C12.6075 21.2985 14.0388 20.651 14.976 19.5094ZM16.1858 21.4689C14.107 21.3326 12.3349 22.6446 11.3977 22.6446C10.4606 22.6446 8.89296 21.52 7.24014 21.5541C5.0591 21.6052 3.06549 22.832 2.02609 24.7405C-0.223105 28.5914 1.42971 34.3507 3.62779 37.4348C4.68423 39.0365 5.94515 40.6382 7.63204 40.6382C9.31894 40.6382 9.83012 39.6158 11.7556 39.6158C13.681 39.6158 14.2263 40.6382 15.9132 40.6041C17.6001 40.57 18.7417 39.0024 19.7811 37.5029C20.5308 36.4124 21.1102 35.2026 21.5021 33.9417C19.4574 33.0386 18.1453 31.0109 18.1624 28.7788C18.1965 26.8193 19.2359 25.0131 20.8887 23.9907C19.8152 22.4742 18.1113 21.5371 16.271 21.4859" fill="white"/>
<path fill-rule="evenodd" clip-rule="evenodd" d="M32.5611 19.4233V23.4105H35.7475V26.1538H32.5611V35.5255C32.5611 36.9738 33.1916 37.6554 34.6229 37.6554C35.0148 37.6554 35.3896 37.6213 35.7815 37.5702V40.2965C35.1511 40.4158 34.5036 40.4669 33.8561 40.4499C30.4141 40.4499 29.068 39.1549 29.068 35.8663V26.1879H26.6484V23.3935H29.1021V19.4062L32.5611 19.4233ZM47.4535 40.4158H43.7389L37.6048 23.4275H41.3193L45.5792 36.9909L49.8901 23.4275H53.5366L47.4535 40.4158ZM72.5355 30.2263H65.7708V23.4446H62.5504V30.2263H55.8198V33.4126H62.5504V40.2284H65.7708V33.4126H72.5355V30.2263Z" fill="white"/>
</g>
<defs>
<clipPath id="clip0_399_1696">
<rect width="71.5819" height="55" fill="white" transform="translate(0.953125 0.529297)"/>
</clipPath>
</defs>
</svg>
