<svg width="76" height="54" viewBox="0 0 76 54" fill="none" xmlns="http://www.w3.org/2000/svg">
<g clip-path="url(#clip0_399_4995)">
<path d="M21.1197 38.6556H14.1493L8.61548 30.9759H6.75428V38.639H0.611328V15.6172H9.41144C14.4846 15.6172 18.6255 19.0671 18.6255 23.3117C18.6255 25.9004 17.038 28.2126 14.6221 29.6274L21.1197 38.6556ZM12.4821 23.3117C12.4821 21.1705 10.7595 19.4462 8.6531 19.4462H6.75428V27.143H8.6531C10.7595 27.143 12.4821 25.4175 12.4821 23.3117Z" fill="#603C9F"/>
<path d="M51.9183 20.6212L44.842 27.6964V20.5978H38.7002V38.6389H44.842V31.3208L52.2297 38.6389H59.96L50.5723 29.2496L58.348 21.4765V32.1829C58.348 35.7375 60.4857 39.018 65.869 39.018C68.4247 39.018 70.7702 37.5685 71.9102 36.257L74.6718 38.6388H75.9824V20.6212H69.8408V32.2867C69.149 33.4938 68.1852 34.2528 66.6961 34.2528C65.185 34.2528 64.4914 33.357 64.4914 30.4916V20.6212H51.9183ZM37.5028 29.628C37.5028 34.8425 33.2621 39.0182 28.0475 39.0182C22.8346 39.0182 18.6252 34.8425 18.6252 29.628C18.6252 24.4173 22.8346 20.2394 28.0475 20.2394C33.2621 20.2394 37.5028 24.4173 37.5028 29.628ZM28.0475 24.6933C26.4253 24.6933 25.0453 26.8984 25.0453 29.628C25.0453 32.3575 26.4253 34.5654 28.0475 34.5654C29.7074 34.5654 31.0851 32.3575 31.0851 29.628C31.0851 26.8983 29.7074 24.6933 28.0475 24.6933Z" fill="#603C9F"/>
</g>
<defs>
<clipPath id="clip0_399_4995">
<rect width="75.3711" height="53" fill="white" transform="translate(0.611328 0.818359)"/>
</clipPath>
</defs>
</svg>
