<svg width="104" height="45" viewBox="0 0 104 45" fill="none" xmlns="http://www.w3.org/2000/svg">
<g clip-path="url(#clip0_399_4911)">
<path d="M60.5543 24.8797C60.6284 24.6329 60.7024 24.3862 60.7764 24.1147C61.3686 22.116 61.9608 20.1173 62.5531 18.0939L62.6271 17.8719C62.7011 17.6498 62.9232 17.5017 63.1453 17.5017H65.1193C65.6128 17.5017 65.7115 17.6498 65.5388 18.1186L64.7738 20.1667C63.9102 22.4121 63.0466 24.6823 62.1829 26.9277C62.1583 27.0018 62.1089 27.0758 62.0842 27.1498C61.9855 27.4212 61.7141 27.594 61.4427 27.5693C60.8751 27.5446 60.3076 27.5446 59.7401 27.5693C59.3453 27.594 59.0985 27.3966 58.9751 27.0264C58.6543 26.1628 58.3089 25.2992 57.9881 24.4602C57.2232 22.4368 56.4089 20.3887 55.6439 18.3407C55.5699 18.1926 55.5206 17.9952 55.4712 17.8472C55.4219 17.6004 55.5206 17.4524 55.792 17.4524C56.5323 17.4277 57.2725 17.4524 57.9881 17.4524C58.3089 17.4524 58.4323 17.6498 58.531 17.9212C58.679 18.4147 58.8271 18.9082 58.9751 19.4017C59.518 21.203 60.0362 23.0043 60.5543 24.8056C60.505 24.8797 60.505 24.8797 60.5543 24.8797Z" fill="white"/>
<path d="M69.7086 22.5357V27.1994C69.6839 27.4461 69.5605 27.5695 69.3138 27.5942C68.6229 27.6189 67.9319 27.6189 67.2164 27.5942C66.9696 27.5942 66.8462 27.4708 66.8216 27.2241C66.7969 27.15 66.7969 27.0513 66.7969 26.9773V18.0201C66.8216 17.6253 66.9203 17.502 67.3151 17.502H69.1904C69.5852 17.502 69.7086 17.6253 69.7086 18.0201V22.5357Z" fill="white"/>
<path d="M68.278 12.8383C68.5247 12.8136 68.7962 12.863 69.0429 12.9617C69.5364 13.1591 69.9066 13.6279 69.9312 14.1708C70.0299 15.3552 69.2403 15.9474 68.204 15.9227C68.0559 15.9227 67.9079 15.8981 67.7845 15.8734C66.9702 15.676 66.5754 15.0591 66.6494 14.1708C66.7234 13.4552 67.2663 12.937 68.0312 12.863C68.0806 12.8383 68.1793 12.8383 68.278 12.8383Z" fill="white"/>
<path d="M103.587 21.7453V21.7947C103.538 21.7453 103.513 21.6713 103.538 21.5973V21.4986C103.538 21.4986 103.538 21.4739 103.563 21.4739H103.538V21.3505H103.563C103.563 21.3258 103.538 21.3258 103.538 21.3258C103.513 21.0791 103.464 20.8323 103.39 20.6102C102.921 18.9076 101.835 17.7726 100.084 17.3284C99.2693 17.131 98.4303 17.1063 97.616 17.2297C95.864 17.5011 94.6056 18.4141 94.0134 20.0674C93.4212 21.6466 93.4212 23.3739 94.0381 24.9531C94.5562 26.3843 95.5926 27.2973 97.0731 27.6674C97.8628 27.8648 98.7017 27.9142 99.516 27.7908C102.23 27.47 103.365 25.3973 103.538 23.6206H103.513V23.4479C103.489 23.3739 103.489 23.2999 103.563 23.2505V23.2752C103.563 23.2505 103.587 23.2258 103.587 23.2258V21.7453ZM100.503 24.1882C100.429 24.4596 100.306 24.7064 100.133 24.9284C99.8368 25.3232 99.3926 25.5947 98.8991 25.6194C98.6524 25.644 98.4056 25.644 98.1589 25.5947C97.616 25.496 97.1718 25.1258 96.9498 24.6323C96.7524 24.2375 96.629 23.7934 96.6043 23.3492C96.5303 22.5843 96.5303 21.8193 96.703 21.0791C96.777 20.783 96.9004 20.4869 97.0485 20.2154C97.3446 19.7466 97.8134 19.4505 98.3809 19.4011C98.6277 19.3765 98.8744 19.3765 99.1212 19.4258C99.6394 19.5245 100.059 19.87 100.306 20.3388C100.528 20.783 100.651 21.3012 100.676 21.7947C100.7 22.0167 100.7 22.2635 100.7 22.4856C100.7 23.1025 100.651 23.67 100.503 24.1882Z" fill="white"/>
<path d="M80.9109 12.9375H79.1096C78.6161 12.9375 78.5174 13.0362 78.5174 13.5297V17.7245C78.5174 17.8232 78.5668 17.8973 78.4927 17.996C78.3694 17.9713 78.32 17.8973 78.2213 17.8479C76.8642 17.0583 75.4577 16.9102 74.0265 17.5765C73.0395 18.0453 72.3979 18.8843 72.0031 19.8713C71.6083 20.8336 71.5343 21.8453 71.559 22.857C71.559 23.8194 71.781 24.757 72.2005 25.6207C72.694 26.5583 73.4096 27.2986 74.446 27.5947C75.8525 28.0389 77.1849 27.8168 78.394 26.9285C78.4927 26.8791 78.5421 26.7804 78.6408 26.7557C78.7148 26.9038 78.7642 27.0518 78.7888 27.1999C78.8382 27.3973 79.0109 27.5454 79.233 27.5454H79.5538C80.0226 27.5454 80.4668 27.57 80.9356 27.5454C81.3057 27.5454 81.4044 27.422 81.4044 27.0518V13.4063C81.3798 13.0115 81.2811 12.9375 80.9109 12.9375ZM78.5174 22.4622V24.8311C78.5421 24.9791 78.4434 25.1272 78.32 25.2012C77.7031 25.5466 76.9875 25.6947 76.2966 25.596C75.7044 25.522 75.1862 25.1765 74.9148 24.6336C74.7174 24.2142 74.594 23.77 74.5447 23.3259C74.446 22.5116 74.4953 21.6726 74.6927 20.883C74.7668 20.6609 74.8408 20.4635 74.9395 20.2414C75.2109 19.7479 75.7291 19.4025 76.2966 19.3778C76.9875 19.3038 77.6785 19.4518 78.2953 19.7232C78.4434 19.7726 78.5421 19.9206 78.5174 20.0934C78.5174 20.9077 78.5174 21.6726 78.5174 22.4622Z" fill="white"/>
<path d="M88.7083 23.474C89.4486 23.4247 90.2135 23.2766 90.8797 22.9065C91.5706 22.561 92.0395 21.9441 92.1875 21.1792C92.2862 20.7104 92.2862 20.2169 92.1629 19.748C91.8914 18.5883 91.1512 17.848 90.0408 17.4779C89.4239 17.2805 88.7577 17.2065 88.1161 17.2311C85.9447 17.2805 84.2914 18.3909 83.6005 20.5623C83.1563 21.9935 83.2057 23.474 83.6498 24.9052C84.094 26.3857 85.1304 27.274 86.6109 27.6688C87.2524 27.8169 87.894 27.8909 88.5602 27.8663C89.4979 27.8416 90.4603 27.6688 91.3486 27.3234C91.7187 27.1753 91.8174 27.052 91.8174 26.6572V25.7195C91.7927 25.3494 91.6447 25.226 91.2745 25.3C90.9784 25.374 90.707 25.4481 90.4356 25.4974C89.5719 25.6948 88.6589 25.7442 87.7706 25.5961C86.8823 25.4234 86.2901 24.9299 86.068 24.0416C85.994 23.7948 85.9446 23.5234 85.92 23.2519C85.994 23.2519 86.0434 23.2519 86.0927 23.2766C86.981 23.474 87.8447 23.5481 88.7083 23.474ZM86.0187 21.426C86.1174 20.9325 86.2161 20.4389 86.5369 20.0195C87.0057 19.3779 87.6719 19.2052 88.4369 19.2792C88.5109 19.2792 88.5602 19.3039 88.6096 19.3039C89.5226 19.4519 89.7447 20.1675 89.5719 20.8831C89.4486 21.4013 89.0044 21.5987 88.5356 21.6974C88.2888 21.7467 87.9927 21.7714 87.7213 21.7714C87.1784 21.7467 86.6602 21.7221 86.1421 21.648C86.0434 21.574 85.994 21.5247 86.0187 21.426Z" fill="white"/>
<path d="M51.2994 44.669C50.5838 44.6196 49.8929 44.5949 49.1773 44.5456C47.2773 44.3975 45.4019 44.1261 43.576 43.682C37.2097 42.2014 31.6331 39.2404 26.772 34.9222C26.3278 34.5274 25.8837 34.1079 25.4395 33.6884C25.3408 33.5897 25.2421 33.4663 25.1928 33.343C25.1187 33.1702 25.1434 32.9728 25.2915 32.8248C25.4395 32.6767 25.6369 32.6274 25.8097 32.7014C25.933 32.7507 26.0317 32.8001 26.1551 32.8741C30.7941 35.7611 35.8772 37.8586 41.2071 39.0923C42.9837 39.5118 44.7851 39.8326 46.611 40.0547C49.202 40.3755 51.8422 40.4988 54.4578 40.4001C55.8643 40.3508 57.2708 40.2274 58.6773 40.0547C61.9345 39.6352 65.167 38.8949 68.2761 37.8586C69.9293 37.3157 71.5332 36.6988 73.0878 35.9586C73.3098 35.8352 73.606 35.7858 73.8527 35.8598C74.2722 35.9585 74.5436 36.4027 74.4449 36.8222C74.4202 36.8715 74.3956 36.9456 74.3709 36.9949C74.2722 37.1923 74.1241 37.365 73.9514 37.4884C72.4709 38.6482 70.867 39.6845 69.1644 40.5235C65.9566 42.1521 62.5514 43.2872 59.0228 43.9534C56.9994 44.3235 54.9513 44.5456 52.9033 44.6196V44.669H51.3487H51.2994ZM75.1358 32.0352C75.9995 32.0598 76.8384 32.1092 77.6527 32.3313C77.8748 32.4053 78.0969 32.4793 78.319 32.578C78.6151 32.7014 78.8125 32.9728 78.8618 33.2936C78.9112 33.6637 78.9358 34.0339 78.9112 34.404C78.7384 36.6248 78.0475 38.7469 76.9125 40.6469C76.493 41.3378 75.9995 41.9547 75.4073 42.4975C75.2839 42.6209 75.1605 42.6949 74.9878 42.7443C74.741 42.8183 74.593 42.6703 74.5683 42.4235C74.593 42.3001 74.6176 42.1521 74.667 42.0287C75.1112 40.8196 75.5553 39.6105 75.9008 38.3521C76.0982 37.6612 76.2462 36.9702 76.3449 36.2547C76.3696 36.0079 76.3943 35.7365 76.3696 35.4897C76.3449 35.0456 76.0735 34.6754 75.654 34.552C75.2592 34.4287 74.8397 34.3546 74.4202 34.33C73.2358 34.2806 72.0267 34.33 70.867 34.478L69.2878 34.6754C69.115 34.7001 68.967 34.6754 68.8683 34.5274C68.7696 34.3793 68.8189 34.2066 68.9176 34.0585C69.0163 33.9105 69.1397 33.7871 69.3124 33.6884C70.2748 32.9975 71.3358 32.578 72.4956 32.3066C73.3345 32.1585 74.2228 32.0598 75.1358 32.0352Z" fill="#00A8E1"/>
<path d="M9.91952 21.4502C9.87017 20.7839 9.69744 20.1177 9.42601 19.5008C8.88315 18.3904 8.06886 17.5761 6.83509 17.28C5.40392 16.9592 4.1208 17.28 2.96105 18.1437C2.88702 18.2177 2.78832 18.2917 2.68962 18.3411C2.66495 18.3164 2.64027 18.3164 2.64027 18.2917C2.59092 18.1683 2.56624 18.045 2.54157 17.8969C2.44287 17.5761 2.31949 17.4528 1.94936 17.4528C1.55455 17.4528 1.15974 17.4774 0.764938 17.4528C0.468833 17.4281 0.197403 17.4774 0 17.6995C0 22.2398 -3.76885e-07 26.7801 0.024675 31.2957C0.197403 31.5671 0.444158 31.6164 0.740263 31.6164C1.2091 31.5918 1.67793 31.6164 2.14676 31.6164C2.96105 31.6164 2.96105 31.6164 2.96105 30.8022V27.1008C2.96105 27.0021 2.9117 26.9034 3.0104 26.8294C3.65196 27.3229 4.44158 27.6437 5.25587 27.7177C6.39094 27.8411 7.4273 27.545 8.29094 26.7801C8.9325 26.1879 9.40134 25.4476 9.64809 24.6086C9.96887 23.6216 9.99355 22.5359 9.91952 21.4502ZM45.0326 23.3502C45.995 23.5229 47.0067 23.5476 47.969 23.3995C48.5366 23.3255 49.0794 23.1528 49.5976 22.8814C50.1898 22.5359 50.6093 22.0671 50.782 21.4255C51.2262 19.7969 50.5353 18.1437 48.8327 17.5515C47.9937 17.28 47.1301 17.1813 46.2664 17.3047C44.2184 17.5268 42.8859 18.6618 42.269 20.6112C41.8495 21.9437 41.8989 23.3008 42.2443 24.658C42.6885 26.3853 43.8482 27.3969 45.5508 27.7671C46.5379 27.9892 47.5249 27.9398 48.5119 27.7918C49.0301 27.6931 49.5482 27.5697 50.0418 27.3723C50.3379 27.2489 50.4859 27.0762 50.4859 26.7307C50.4612 26.4099 50.4859 26.0892 50.4859 25.7684C50.4859 25.3736 50.3379 25.2749 49.9431 25.3489C49.5729 25.4476 49.2028 25.5216 48.8327 25.5956C48.0184 25.7684 47.2041 25.7684 46.3898 25.6203C45.2794 25.3982 44.5885 24.4606 44.6378 23.3008C44.7859 23.3255 44.9339 23.3255 45.0326 23.3502ZM27.217 27.5944H25.4897C25.0456 27.5944 24.9222 27.471 24.9222 27.0268V18.045C24.9222 17.9463 24.9469 17.8476 24.9715 17.7242C25.0209 17.5761 25.1689 17.4774 25.3417 17.4774H26.9702C27.1923 17.4774 27.3404 17.6255 27.4144 17.8476C27.4884 18.0203 27.5131 18.193 27.5871 18.3904C27.7105 18.3904 27.7845 18.2917 27.8832 18.2424C28.5988 17.7982 29.3391 17.4281 30.178 17.28C30.8196 17.1566 31.4612 17.1566 32.1274 17.28C32.7443 17.4034 33.2871 17.7735 33.6326 18.2917C33.6573 18.3411 33.682 18.3657 33.7066 18.3904C33.682 18.4151 33.7066 18.4151 33.7313 18.4398C34.0521 18.2424 34.3975 18.045 34.743 17.8476C35.656 17.3787 36.6677 17.1567 37.6794 17.206C38.4196 17.2554 39.0859 17.4528 39.6041 17.9956C40.0976 18.4891 40.2703 19.1307 40.3196 19.7969C40.3443 19.945 40.3443 20.093 40.3443 20.2411V26.9528C40.3443 27.545 40.2703 27.619 39.6781 27.619H38.0989C38.0002 27.619 37.9015 27.619 37.7781 27.5944C37.63 27.5697 37.482 27.4463 37.4573 27.2982C37.4326 27.1502 37.4326 27.0021 37.4326 26.8788V20.8826C37.4573 20.6359 37.4079 20.4138 37.3586 20.1671C37.2599 19.7722 36.8898 19.4761 36.4703 19.4515C35.7053 19.4021 34.9404 19.5502 34.2495 19.8709C34.1508 19.8956 34.0768 19.9943 34.1014 20.093V26.9034C34.1014 27.0268 34.1014 27.1502 34.0768 27.2736C34.0768 27.4463 33.9287 27.5944 33.756 27.5944C33.5586 27.619 33.3612 27.619 33.1638 27.619H31.7819C31.3131 27.619 31.1897 27.4957 31.1897 27.0268V20.8826C31.1897 20.6606 31.1651 20.4385 31.1157 20.2164C31.017 19.7722 30.6469 19.4761 30.2027 19.4515C29.4378 19.4021 28.6235 19.5502 27.9326 19.8956C27.8339 19.9203 27.7599 20.0437 27.7845 20.1424V27.0515C27.8092 27.4957 27.7105 27.5944 27.217 27.5944ZM14.1143 27.5944H12.4364C12.3377 27.5944 12.239 27.5944 12.1403 27.5697C11.9676 27.545 11.8442 27.4216 11.8195 27.2489C11.7949 27.1502 11.7949 27.0515 11.7949 26.9281V18.119C11.7949 17.5268 11.8689 17.4528 12.4611 17.4528H13.6949C14.0403 17.4528 14.1884 17.5761 14.2871 17.8969C14.3858 18.2177 14.4598 18.5385 14.5338 18.8839C14.6325 18.8593 14.7066 18.8099 14.7559 18.7359C14.978 18.5138 15.2247 18.2917 15.4962 18.0696C16.1624 17.5515 17.0014 17.3047 17.865 17.3541C18.2105 17.3787 18.3092 17.4774 18.3338 17.7982C18.3585 18.2424 18.3585 18.6865 18.3585 19.1307C18.3832 19.3034 18.3585 19.4761 18.3338 19.6735C18.2845 19.8956 18.1858 19.9943 17.9637 20.019C17.791 20.0437 17.6183 20.019 17.4208 19.9943C16.5572 19.9203 15.7182 20.093 14.904 20.3645C14.7312 20.4385 14.7312 20.5619 14.7312 20.7099V26.9281C14.7312 27.0515 14.7312 27.1502 14.7066 27.2736C14.6819 27.4463 14.5585 27.5697 14.3858 27.5697C14.3117 27.5944 14.213 27.5944 14.1143 27.5944ZM21.9365 27.5697H20.1351C20.0611 27.5697 20.0118 27.5697 19.9624 27.545C19.7897 27.5203 19.617 27.397 19.617 27.1995C19.5923 27.1008 19.5923 27.0021 19.5923 26.8788C19.617 25.4476 19.617 23.9671 19.617 22.4865V17.9216C19.6416 17.6008 19.7403 17.5021 20.0611 17.4774C20.7274 17.4528 21.4183 17.4528 22.0845 17.4774C22.3806 17.4774 22.4793 17.5761 22.504 17.8722C22.5287 17.9956 22.5287 18.0943 22.5287 18.2177V26.8541C22.5287 27.0021 22.504 27.1502 22.504 27.2736C22.4793 27.4463 22.3559 27.5697 22.1832 27.5697C22.0845 27.5697 22.0105 27.5697 21.9365 27.5697ZM6.81042 24.1398C6.71172 24.5346 6.51431 24.9047 6.21821 25.1762C5.87275 25.4723 5.47794 25.6203 5.03379 25.6203C4.36755 25.6697 3.72599 25.5216 3.13378 25.2008C2.98573 25.1268 2.9117 25.0034 2.9117 24.8307V22.4865C2.9117 21.7216 2.93638 20.932 2.9117 20.1671C2.88703 19.9943 3.0104 19.8216 3.18313 19.7722C3.89872 19.4268 4.63898 19.2787 5.40392 19.4268C5.94678 19.5008 6.41561 19.8463 6.63769 20.3645C6.83509 20.7839 6.95847 21.2281 6.98315 21.6969C7.05717 22.5112 7.05717 23.3502 6.81042 24.1398ZM44.7119 21.3761C44.7612 21.0554 44.8353 20.7593 44.9586 20.4878C45.3534 19.5502 46.1677 19.2294 46.982 19.2787C47.2041 19.3034 47.4508 19.3528 47.6729 19.4268C48.0184 19.5748 48.2405 19.8709 48.2651 20.2411C48.3145 20.4632 48.2898 20.6852 48.2158 20.9073C48.0677 21.3761 47.6729 21.5736 47.2288 21.6476C46.9573 21.7216 46.6612 21.7463 46.3898 21.7216C45.8963 21.7216 45.3781 21.6723 44.8599 21.5982C44.6872 21.5735 44.6872 21.5736 44.7119 21.3761ZM21.0975 12.8384C21.2949 12.8138 21.517 12.8631 21.7144 12.9372C22.4053 13.1592 22.7754 13.7761 22.7014 14.5657C22.652 15.232 22.1339 15.7748 21.4676 15.8982C21.1715 15.9476 20.8754 15.9476 20.604 15.8982C19.8637 15.7502 19.3209 15.2073 19.3702 14.2696C19.4689 13.3566 20.0611 12.8384 21.0975 12.8384Z" fill="#00A8E1"/>
</g>
<defs>
<clipPath id="clip0_399_4911">
<rect width="103.599" height="44.1397" fill="white" transform="translate(0 0.529297)"/>
</clipPath>
</defs>
</svg>
