<svg width="218" height="149" viewBox="0 0 218 149" fill="none" xmlns="http://www.w3.org/2000/svg">
<g opacity="0.28" filter="url(#filter0_f_399_1453)">
<path d="M89.6641 20.2796C89.6641 19.0783 90.6379 18.1045 91.8391 18.1045H98.4041C99.6054 18.1045 100.579 19.0783 100.579 20.2796V77.0004C100.579 78.2016 99.6054 79.1754 98.4041 79.1754H91.8391C90.6379 79.1754 89.6641 78.2016 89.6641 77.0004V20.2796Z" fill="white"/>
<path d="M117.425 20.2796C117.425 19.0783 118.399 18.1045 119.6 18.1045H126.165C127.366 18.1045 128.34 19.0783 128.34 20.2796V77.0004C128.34 78.2016 127.366 79.1754 126.165 79.1754H119.6C118.399 79.1754 117.425 78.2016 117.425 77.0004V20.2796Z" fill="white"/>
<path d="M103.545 20.2796C103.545 19.0783 104.518 18.1045 105.72 18.1045H112.285C113.486 18.1045 114.46 19.0783 114.46 20.2796V74.7837C114.46 75.985 113.486 76.9588 112.285 76.9588H105.72C104.518 76.9588 103.545 75.985 103.545 74.7837V20.2796Z" fill="white"/>
</g>
<g opacity="0.2" filter="url(#filter1_f_399_1453)">
<path fill-rule="evenodd" clip-rule="evenodd" d="M100.579 66.2474C96.9857 62.5794 92.9557 58.2451 89.6641 54.6289V77.0009C89.6641 78.2021 90.6379 79.1759 91.8391 79.1759H98.4041C99.6054 79.1759 100.579 78.2021 100.579 77.0009V66.2474ZM117.425 76.0844C118.664 76.3057 119.928 76.5191 121.15 76.7252C123.968 77.2006 126.557 77.6376 128.074 78.0451C127.704 78.719 126.988 79.1759 126.165 79.1759H119.6C118.399 79.1759 117.425 78.2021 117.425 77.0009V76.0844ZM103.545 69.2149C106.129 71.7392 108.222 73.5884 109.23 74.063C110.319 74.5752 112.177 75.0515 114.34 75.4971C114.045 76.3482 113.236 76.9593 112.285 76.9593H105.72C104.518 76.9593 103.545 75.9855 103.545 74.7842V69.2149Z" fill="white"/>
</g>
<path fill-rule="evenodd" clip-rule="evenodd" d="M89.6641 20.2796C89.6641 19.0783 90.6379 18.1045 91.8391 18.1045H98.4041C99.6054 18.1045 100.579 19.0783 100.579 20.2796V62.8119C100.114 62.5183 99.5232 62.1861 99.142 62.0982C98.91 62.0446 98.9087 61.9122 98.9068 61.7132C98.9031 61.3274 98.897 60.6913 97.2015 59.8955C96.6454 58.8181 97.2178 58.5007 97.713 58.226C97.9652 58.0862 98.1973 57.9574 98.2504 57.7451C98.4078 57.1158 98.3554 55.6473 97.6211 55.0704C97.5187 54.9899 97.4164 54.9044 97.3122 54.8173C96.6689 54.2799 95.9552 53.6836 94.7366 53.8641C93.3205 54.0739 91.8519 55.1753 91.6946 55.4375C91.5211 55.2798 91.248 55.1031 90.9324 54.8988C90.5389 54.6442 90.0793 54.3469 89.6641 53.9901V20.2796ZM127.07 78.9787C127.82 78.6353 128.34 77.8786 128.34 77.0004V20.2796C128.34 19.0783 127.366 18.1045 126.165 18.1045H119.6C118.399 18.1045 117.425 19.0783 117.425 20.2796V74.8753L118.285 74.7377C118.512 74.6328 119.051 74.4755 119.386 74.6853C119.806 74.9475 120.54 75.2098 120.697 74.8951C120.855 74.5804 121.904 75.2098 122.638 75.8916C123.117 76.3368 123.217 76.3795 123.637 76.56C123.86 76.6558 124.174 76.7907 124.683 77.0454C125.931 77.1661 126.252 77.75 126.476 78.1574C126.544 78.2809 126.603 78.3882 126.676 78.4614C126.821 78.606 126.961 78.8036 127.07 78.9787ZM114.454 74.9443C114.458 74.8913 114.46 74.8377 114.46 74.7837V20.2796C114.46 19.0783 113.486 18.1045 112.285 18.1045H105.72C104.518 18.1045 103.545 19.0783 103.545 20.2796V72.0043C103.773 71.9694 104.044 71.968 104.282 72.063C104.508 72.1536 104.617 72.3906 104.736 72.6477C104.891 72.9863 105.063 73.3598 105.54 73.4791C105.982 73.5896 106.09 73.5109 106.33 73.3351C106.546 73.1771 106.869 72.9406 107.638 72.6923C109.264 72.1679 110.575 73.0594 110.68 73.5839C110.747 73.9168 111.173 74.2075 111.596 74.4961C111.839 74.6622 112.081 74.8276 112.254 75C112.811 74.6657 113.847 74.7999 114.454 74.9443Z" fill="white"/>
<path fill-rule="evenodd" clip-rule="evenodd" d="M89.6641 20.2796C89.6641 19.0783 90.6379 18.1045 91.8391 18.1045H98.4041C99.6054 18.1045 100.579 19.0783 100.579 20.2796V62.8119C100.114 62.5183 99.5232 62.1861 99.142 62.0982C98.91 62.0446 98.9087 61.9122 98.9068 61.7132C98.9031 61.3274 98.897 60.6913 97.2015 59.8955C96.6454 58.8181 97.2178 58.5007 97.713 58.226C97.9652 58.0862 98.1973 57.9574 98.2504 57.7451C98.4078 57.1158 98.3554 55.6473 97.6211 55.0704C97.5187 54.9899 97.4164 54.9044 97.3122 54.8173C96.6689 54.2799 95.9552 53.6836 94.7366 53.8641C93.3205 54.0739 91.8519 55.1753 91.6946 55.4375C91.5211 55.2798 91.248 55.1031 90.9324 54.8988C90.5389 54.6442 90.0793 54.3469 89.6641 53.9901V20.2796ZM127.07 78.9787C127.82 78.6353 128.34 77.8786 128.34 77.0004V20.2796C128.34 19.0783 127.366 18.1045 126.165 18.1045H119.6C118.399 18.1045 117.425 19.0783 117.425 20.2796V74.8753L118.285 74.7377C118.512 74.6328 119.051 74.4755 119.386 74.6853C119.806 74.9475 120.54 75.2098 120.697 74.8951C120.855 74.5804 121.904 75.2098 122.638 75.8916C123.117 76.3368 123.217 76.3795 123.637 76.56C123.86 76.6558 124.174 76.7907 124.683 77.0454C125.931 77.1661 126.252 77.75 126.476 78.1574C126.544 78.2809 126.603 78.3882 126.676 78.4614C126.821 78.606 126.961 78.8036 127.07 78.9787ZM114.454 74.9443C114.458 74.8913 114.46 74.8377 114.46 74.7837V20.2796C114.46 19.0783 113.486 18.1045 112.285 18.1045H105.72C104.518 18.1045 103.545 19.0783 103.545 20.2796V72.0043C103.773 71.9694 104.044 71.968 104.282 72.063C104.508 72.1536 104.617 72.3906 104.736 72.6477C104.891 72.9863 105.063 73.3598 105.54 73.4791C105.982 73.5896 106.09 73.5109 106.33 73.3351C106.546 73.1771 106.869 72.9406 107.638 72.6923C109.264 72.1679 110.575 73.0594 110.68 73.5839C110.747 73.9168 111.173 74.2075 111.596 74.4961C111.839 74.6622 112.081 74.8276 112.254 75C112.811 74.6657 113.847 74.7999 114.454 74.9443Z" fill="url(#paint0_radial_399_1453)"/>
<defs>
<filter id="filter0_f_399_1453" x="75.2597" y="3.70009" width="67.4846" height="89.8801" filterUnits="userSpaceOnUse" color-interpolation-filters="sRGB">
<feFlood flood-opacity="0" result="BackgroundImageFix"/>
<feBlend mode="normal" in="SourceGraphic" in2="BackgroundImageFix" result="shape"/>
<feGaussianBlur stdDeviation="7.2022" result="effect1_foregroundBlur_399_1453"/>
</filter>
<filter id="filter1_f_399_1453" x="85.5485" y="50.5134" width="46.6412" height="32.778" filterUnits="userSpaceOnUse" color-interpolation-filters="sRGB">
<feFlood flood-opacity="0" result="BackgroundImageFix"/>
<feBlend mode="normal" in="SourceGraphic" in2="BackgroundImageFix" result="shape"/>
<feGaussianBlur stdDeviation="2.05777" result="effect1_foregroundBlur_399_1453"/>
</filter>
<radialGradient id="paint0_radial_399_1453" cx="0" cy="0" r="1" gradientUnits="userSpaceOnUse" gradientTransform="translate(114.463 17.0516) rotate(78.6139) scale(70.2926 44.6601)">
<stop offset="0.58427" stop-opacity="0"/>
<stop offset="1"/>
</radialGradient>
</defs>
</svg>
