<svg width="81" height="56" viewBox="0 0 81 56" fill="none" xmlns="http://www.w3.org/2000/svg">
<g clip-path="url(#clip0_399_1687)">
<path d="M11.0997 17.166C9.99028 17.166 8.80217 17.166 7.69089 17.166C7.68339 21.8004 7.67777 24.8026 7.67215 29.437C6.20856 24.9131 4.74122 21.9203 3.272 17.166C2.02579 17.166 1.24621 17.166 0 17.166C0 24.4071 0 31.6501 0 38.8913C1.10379 38.7339 2.28815 38.5839 3.39381 38.4396C3.39756 33.8989 3.39943 31.1067 3.40318 26.566C4.92487 31.0355 5.85999 33.6722 7.37793 37.9205C8.56792 37.7856 9.8741 37.617 11.066 37.497C11.0772 30.7188 11.0884 23.9424 11.0997 17.166Z" fill="#ED2517"/>
<path d="M23.8302 17.166C20.6707 17.166 17.5486 17.166 14.389 17.166C14.3759 23.8468 14.3628 30.5276 14.3516 37.2103C17.5092 36.9236 20.6707 36.6875 23.8359 36.5057C23.8377 35.5293 23.8396 34.1238 23.8415 33.1475C21.7838 33.273 19.8161 33.4061 17.766 33.5429C17.7697 31.7476 17.7735 30.2615 17.7772 28.4644C19.2764 28.4381 20.8581 28.4606 22.3891 28.4344C22.391 27.4524 22.3929 26.0431 22.3948 25.0612C20.8787 25.0874 19.2764 25.0912 17.7829 25.1193C17.7866 23.3221 17.7903 22.3383 17.7941 20.5411C18.733 20.5298 19.6531 20.528 20.5714 20.528C20.7325 20.528 20.8937 20.528 21.0549 20.528C21.216 20.528 21.3753 20.528 21.5365 20.528C22.3029 20.528 23.0713 20.528 23.8546 20.5205C23.8546 19.546 23.8284 18.1424 23.8302 17.166Z" fill="#ED2517"/>
<path d="M36.5578 17.1816C33.0928 17.1816 29.5097 17.1816 26.0447 17.1816C26.0428 18.1524 26.0409 19.5504 26.0391 20.5211C26.189 20.5192 26.3408 20.5192 26.4907 20.5192C26.948 20.5192 27.4033 20.523 27.8606 20.5286C28.316 20.5324 28.7732 20.538 29.2305 20.538C29.3467 20.538 29.4647 20.538 29.5809 20.538C29.5734 25.9238 29.5659 30.845 29.5603 36.2308C30.6735 36.1896 31.8634 36.154 32.9747 36.1259C32.9804 30.77 32.9841 25.8789 32.9897 20.523C34.1647 20.5192 35.3791 20.5155 36.5541 20.5117C36.5578 19.556 36.5578 18.1355 36.5578 17.1816Z" fill="#ED2517"/>
<path d="M48.2481 17.166C45.0885 17.166 41.9271 17.166 38.7675 17.166C38.7675 23.4552 38.7656 29.7443 38.7656 36.0316C39.1329 36.0297 39.5021 36.0297 39.875 36.0297C40.634 36.0297 41.3967 36.0316 42.1444 36.0391C42.1444 33.3705 42.1426 30.9343 42.1426 28.2657C42.3281 28.2657 42.5174 28.2676 42.7066 28.2676C43.147 28.2676 43.5949 28.2657 44.0447 28.2638C44.4944 28.262 44.9461 28.2601 45.394 28.2601C45.855 28.2601 46.3122 28.262 46.7601 28.2676C46.7601 27.31 46.7582 25.8876 46.7582 24.93C46.3366 24.9262 45.9056 24.9244 45.4689 24.9244C45.0023 24.9244 44.5319 24.9262 44.0615 24.9281C43.593 24.93 43.1264 24.9319 42.6673 24.9319C42.4911 24.9319 42.3169 24.9319 42.1444 24.9319C42.1444 23.2153 42.1444 22.2483 42.1426 20.5317C42.5136 20.5317 42.8828 20.5317 43.252 20.5317C43.6268 20.5317 43.9997 20.5317 44.3708 20.5317C44.7474 20.5317 45.1222 20.5317 45.4989 20.5317C46.4153 20.5317 47.3317 20.5317 48.2556 20.5373C48.2499 19.5779 48.2499 18.1255 48.2481 17.166Z" fill="#ED2517"/>
<path d="M50.4603 17.1816C50.4678 23.5307 50.4378 29.8799 50.4471 36.2308C53.4774 36.3433 56.6632 36.467 59.6897 36.675C59.6878 35.6986 59.686 34.2931 59.6841 33.3168C57.7689 33.2043 55.773 33.0694 53.8559 32.9888C53.8466 27.5505 53.8766 22.62 53.8691 17.1816C52.7578 17.1816 51.5697 17.1816 50.4603 17.1816Z" fill="#ED2517"/>
<path d="M62.4883 17.1816C62.5014 23.7481 62.5145 30.3146 62.5276 36.8811C63.6389 36.9673 64.7877 37.0591 65.8971 37.1585C65.9008 30.5039 65.9102 23.8418 65.8971 17.1835C64.7877 17.1816 63.5996 17.1816 62.4883 17.1816Z" fill="#ED2517"/>
<path d="M68.8154 17.1835C70.1778 20.5042 71.4259 23.8325 72.8089 27.3593C71.3697 30.7456 69.9061 34.1113 68.4688 37.359C69.6587 37.477 70.89 37.6476 72.0799 37.7806C72.9326 35.6874 73.7085 34.0776 74.563 31.9281C75.4157 34.2163 76.1915 35.9853 77.0404 38.3485C78.2285 38.5021 79.7671 38.7233 80.9533 38.8919C79.516 35.0483 77.9437 31.0474 76.4988 27.4155C77.9381 24.0049 79.4073 20.7497 80.9027 17.1835C79.6753 17.1835 78.4084 17.1835 77.181 17.1835C76.259 19.3873 75.6237 20.8041 74.7391 22.9011C73.9146 20.7179 73.3618 19.3049 72.5372 17.1816C71.3097 17.1835 70.0429 17.1835 68.8154 17.1835Z" fill="#ED2517"/>
</g>
<defs>
<clipPath id="clip0_399_1687">
<rect width="80.9549" height="55" fill="white" transform="translate(0 0.529297)"/>
</clipPath>
</defs>
</svg>
