<svg width="91" height="74" viewBox="0 0 91 74" fill="none" xmlns="http://www.w3.org/2000/svg">
<g clip-path="url(#clip0_399_2476)">
<path d="M83.1342 39.1186L83.1339 39.1189L82.7179 39.1193C82.6154 39.1194 82.5194 39.1501 82.4269 39.2447C82.3119 39.3621 82.2945 39.5127 82.3223 39.66C82.6597 41.4602 82.8335 43.2175 82.8902 44.8751H77.6691C77.5511 44.8751 77.4535 44.9169 77.3755 44.9941C77.2934 45.0753 77.2427 45.1788 77.2427 45.3486L77.2432 46.8471C77.2434 47.1453 77.4487 47.3118 77.6964 47.3119H82.8885C82.8498 48.4569 82.7603 49.5332 82.6381 50.4962C82.5445 51.2335 82.4336 51.9245 82.316 52.553C82.2935 52.7328 82.3409 52.846 82.4279 52.9423C82.5316 53.0463 82.6526 53.0711 82.7952 53.071L83.3132 53.0703L84.1188 53.071C84.3243 53.0711 84.4763 52.9764 84.5674 52.8829C84.7017 52.745 84.7248 52.5974 84.7394 52.5124C84.8447 51.8979 84.9455 51.2251 85.0296 50.5087C85.143 49.5419 85.2258 48.4614 85.2618 47.3119H90.3784C90.6261 47.3118 90.8314 47.1453 90.8315 46.8471L90.832 45.3486C90.8321 45.1788 90.7814 45.0753 90.6993 44.9941C90.6212 44.9169 90.5236 44.8751 90.4057 44.8751H85.263C85.2315 43.8845 85.1618 42.8589 85.0429 41.8085C84.9628 41.1011 84.8611 40.383 84.7356 39.6584C84.71 39.5111 84.6591 39.3645 84.5077 39.2466C84.4075 39.1685 84.2681 39.1193 84.1741 39.1193L83.4714 39.1188C83.4704 39.1188 83.4695 39.1186 83.4685 39.1186L83.3284 39.1188L83.1342 39.1186Z" fill="white"/>
<path d="M48.6171 12.5293C45.2287 12.5293 41.9151 12.9451 38.7201 13.7466C36.0465 14.4174 33.4888 15.3585 31.0668 16.5502C30.1702 16.9914 29.3254 17.4527 28.5226 17.9297C26.9581 18.8592 25.5332 19.8511 24.1979 20.9305C23.164 21.7664 22.2296 22.6145 21.4222 23.4147C20.8834 23.9486 20.3861 24.468 19.864 25.0517C19.8165 25.1047 19.7721 25.1537 19.7258 25.2054C19.6437 25.2973 19.5451 25.4391 19.5938 25.6338C19.6094 25.6964 19.6441 25.7537 19.6927 25.8C19.7826 25.8789 19.8868 25.8977 19.9809 25.8905C20.0923 25.882 20.2179 25.8161 20.2882 25.7632C20.3354 25.7278 20.3806 25.6867 20.424 25.6423C20.5843 25.4779 20.7313 25.316 20.8861 25.1556C21.1636 24.868 21.4467 24.5855 21.7385 24.3029C22.8409 23.2352 24.2181 22.0706 25.7204 21.0046C26.5337 20.4274 27.3883 19.8675 28.3181 19.3214C29.0812 18.8731 30.5199 18.0679 32.3368 17.286C33.9466 16.5931 35.5094 16.0555 36.9779 15.6388C38.0384 15.3378 39.1352 15.0748 40.2428 14.8623C41.2254 14.6737 42.2199 14.5221 43.22 14.4056C44.7565 14.2265 46.2894 14.1425 47.8229 14.1425C51.3799 14.1425 55.0123 14.6212 58.5015 15.5978C59.7623 15.9507 60.9904 16.3629 62.1876 16.8351C63.7408 17.4476 65.1702 18.1205 66.6962 18.976C69.508 20.5523 72.0139 22.4682 74.2709 24.7461C75.3674 25.8528 76.3159 26.9679 77.1348 28.0575C78.1569 29.4176 78.9785 30.7378 79.6325 31.9429C80.0504 32.7126 80.3997 33.4362 80.6836 34.0703C81.2823 35.4074 81.6388 36.5002 81.6388 36.5002C81.6765 36.6037 81.7046 36.6471 81.7493 36.7147C81.8581 36.86 82.0319 36.9447 82.209 36.9446L83.6628 36.9441C83.7726 36.9441 83.8223 36.9218 83.8819 36.8873C83.9364 36.8557 84.0124 36.7828 84.0463 36.7041C84.0861 36.6117 84.0967 36.4878 84.0605 36.3746C83.5375 34.8111 82.823 33.1694 81.9769 31.5914C80.6586 29.1327 78.659 26.1246 75.7442 23.263C73.1702 20.736 70.5758 18.9566 68.4091 17.7138C65.7162 16.169 62.8592 14.9659 59.8298 14.0983C56.1804 13.0531 52.3912 12.5293 48.6171 12.5293Z" fill="white"/>
<path d="M41.946 45.9305C41.9965 45.9374 42.008 45.9396 42.0562 45.9442C42.6172 46.021 43.0537 46.0999 43.4467 46.2002C43.9004 46.3161 44.2856 46.458 44.5677 46.6148C44.781 46.7334 44.9493 46.8603 45.088 47C45.1672 47.0798 45.239 47.1692 45.3035 47.2614C45.4009 47.401 45.537 47.6533 45.6061 47.8117C45.6639 47.9441 45.6994 48.0458 45.7121 48.0839C45.7804 48.2883 45.8287 48.5026 45.857 48.7212C45.9044 49.0883 45.9003 49.4329 45.8482 49.7598C45.7945 50.0958 45.6795 50.5904 45.291 51.11C44.9599 51.5528 44.4976 51.9067 43.9546 52.1674C43.3004 52.4842 42.6096 52.6412 41.9185 52.7206C40.6261 52.8629 39.215 52.606 38.0593 52.0319C37.6903 51.8463 37.3686 51.6551 37.08 51.4404C36.7988 51.2311 36.5317 50.9924 36.3328 50.7199C36.0185 50.2894 35.8997 49.909 35.9021 49.5288C35.9044 49.1684 36.0192 48.8407 36.1935 48.5956C36.3924 48.2955 36.7139 48.0792 37.0792 47.9277C37.6958 47.672 38.4549 47.6006 39.0675 47.6223C39.8112 47.6498 41.1472 47.8817 41.8542 48.1319C42.0493 48.203 42.7701 48.4831 42.8964 48.6116C42.9859 48.7012 43.0433 48.832 43.0043 48.9514C42.8413 49.4472 41.643 49.7066 41.2987 49.7571C40.3713 49.8994 39.8828 49.5482 38.8292 49.1327C38.5675 49.0317 38.2186 48.9169 37.9523 48.8917C37.6861 48.8674 37.3886 48.898 37.1614 49.0201C36.9299 49.1446 36.807 49.3519 36.8106 49.5756C36.8141 49.7859 36.9797 49.9776 37.3252 50.129C37.4797 50.1955 37.6263 50.2504 37.7692 50.2952C38.1483 50.414 38.501 50.4625 38.9045 50.4675C39.6953 50.4808 40.5329 50.4238 41.339 50.2562C42.2082 50.0754 43.0409 49.7647 43.7388 49.2704C43.9202 49.1396 44.1015 48.9491 44.1038 48.7057C44.1107 48.2168 43.2522 47.9184 43.2522 47.9184C42.4958 47.6016 41.2253 47.4383 40.3063 47.3388C40.1264 47.3194 39.96 47.2997 39.8135 47.2845C39.6504 47.2704 39.4585 47.2535 39.2738 47.2372C39.1318 47.2246 39.0026 47.2154 38.842 47.2034C38.6948 47.1924 38.5038 47.1777 38.3606 47.165C38.0433 47.1367 37.7594 47.1094 37.5381 47.0859C37.4263 47.074 37.1328 47.0402 36.8345 46.9877C36.6245 46.9508 36.4133 46.9101 36.2116 46.8295C36.0236 46.7544 35.8324 46.6325 35.6808 46.4711C35.5474 46.329 35.4454 46.1611 35.413 45.9924C35.2569 45.3773 35.4566 44.6171 35.7986 44.1236C36.6985 42.8335 38.8012 42.3449 40.3713 42.1521C41.8909 41.9615 44.3494 41.9638 45.8438 42.7581C46.0734 42.8797 46.1927 42.9968 46.1445 43.2424C46.0458 43.7061 45.6992 44.0045 45.2768 44.1354C44.8361 44.2754 43.9202 44.3296 43.5185 44.3549C41.7188 44.4559 39.5403 44.4017 37.8256 44.8699C37.6924 44.909 37.4606 44.9709 37.3848 45.0559C37.2411 45.2119 37.3884 45.3087 37.583 45.3703C37.7259 45.4155 37.9095 45.4462 38.1561 45.4828L41.946 45.9305Z" fill="white"/>
<path d="M55.2203 50.8061C54.8851 51.5935 53.9989 52.436 52.9014 51.9126C51.8155 51.3892 50.0866 47.8518 50.0866 47.8518C50.0866 47.8518 49.43 46.5319 49.306 46.5663C49.306 46.5663 49.1636 46.3092 49.0764 47.7508C48.9868 49.1855 49.0947 51.9837 48.5208 52.4245C47.9789 52.8652 47.3223 52.6908 46.9802 52.1743C46.6725 51.6647 46.5439 50.4572 46.7115 48.3362C46.9113 46.2105 47.4049 43.9494 48.0363 43.2447C48.6654 42.5469 49.1705 43.0542 49.368 43.2378C49.368 43.2378 50.2106 44.0022 51.6019 46.245L51.8453 46.6604C51.8453 46.6604 53.1081 48.7792 53.2412 48.7746C53.2412 48.7746 53.3446 48.871 53.4364 48.7999C53.5696 48.7631 53.5145 48.0837 53.5145 48.0837C53.5145 48.0837 53.2527 45.7744 52.1024 41.8651C52.1024 41.8651 51.928 41.3785 52.045 40.9217C52.1621 40.4603 52.6236 40.676 52.6236 40.676C52.6236 40.676 54.4099 41.5736 55.2778 44.482C56.1387 47.3904 55.5602 50.0142 55.2203 50.8061Z" fill="white"/>
<path d="M65.172 44.4382C63.9095 44.7297 60.5879 44.8905 60.5879 44.8905L60.1678 46.2038C60.1678 46.2038 61.8274 46.0614 63.0372 46.1877C63.0372 46.1877 63.4274 46.1418 63.4733 46.6331C63.4894 47.09 63.4343 47.5791 63.4343 47.5791C63.4343 47.5791 63.409 47.8752 62.989 47.951C62.5345 48.0291 59.4103 48.1485 59.4103 48.1485L58.9053 49.859C58.9053 49.859 58.717 50.2562 59.1394 50.1414C59.5296 50.0381 62.803 49.4227 63.2277 49.5123C63.6868 49.6248 64.1918 50.2332 64.0449 50.7888C63.8704 51.4776 60.6039 53.5601 58.616 53.4155C58.616 53.4155 57.5693 53.482 56.6855 52.0723C55.8637 50.7269 56.9977 48.1806 56.9977 48.1806C56.9977 48.1806 56.4789 46.9936 56.8554 46.5895C56.8554 46.5895 57.0803 46.3874 57.7345 46.3415L58.5334 44.6838C58.5334 44.6838 57.6221 44.7458 57.0803 44.0754C56.573 43.4394 56.5317 43.1478 56.9196 42.971C57.3328 42.7667 61.1319 42.0733 63.7442 42.1605C63.7442 42.1605 64.6532 42.071 65.4406 43.6483C65.4406 43.6483 65.8216 44.2843 65.172 44.4382Z" fill="white"/>
<path d="M73.7613 45.3302C73.7613 45.3302 73.749 45.2334 73.7017 45.1363C73.602 44.9315 73.3467 44.7257 72.7237 45.4266C71.9364 46.2966 70.5132 47.931 69.3677 50.1508C70.5705 50.0153 71.7298 49.3634 72.0787 49.0305C72.4146 48.7326 73.0143 48.1332 73.4056 47.317C73.6215 46.8668 73.7757 46.3505 73.7855 45.7824C73.7881 45.6351 73.7793 45.4842 73.7613 45.3302ZM74.3926 49.0676C73.58 50.4862 71.2845 53.454 68.236 52.7539C67.8612 53.6615 67.5089 54.5736 67.1893 55.5515C66.6497 57.2025 66.2007 59.041 65.8966 61.362C65.8966 61.362 65.791 62.0805 65.1941 61.8303C64.7254 61.6668 64.0167 61.016 63.6446 60.078C63.5465 59.8307 63.4746 59.5719 63.4339 59.2884C63.3809 58.845 63.3877 58.3174 63.4567 57.7345C63.5805 56.6871 63.8961 55.4339 64.3862 54.0444C64.7234 53.0882 65.1438 52.0674 65.6421 51.0047C65.1692 50.2334 64.8455 49.1315 65.121 47.5637C65.121 47.5637 65.2546 46.6061 65.9206 45.2939C66.4162 44.3176 67.2069 43.145 68.4546 42.0246C68.4546 42.0246 68.8057 41.721 69.0078 41.8151C69.2327 41.9093 69.1313 42.8556 68.9522 43.317C68.7686 43.7761 67.4647 46.0326 67.4647 46.0326C67.4647 46.0326 66.6521 47.5545 66.8817 48.7551C67.5954 47.6594 68.7289 46.045 69.9568 44.7815C71.0163 43.6912 72.1458 42.8613 73.1324 42.8523C73.7064 42.847 74.2755 43.1253 74.663 43.8382C74.9779 44.4175 75.1271 45.1954 75.1271 46.0074C75.1271 47.0771 74.87 48.2182 74.3926 49.0676Z" fill="white"/>
<path d="M32.0924 40.3817C32.0924 40.3817 31.8601 40.8005 31.805 40.878C31.7793 40.92 31.6947 41.0362 31.5906 41.1251C31.51 41.1939 31.4234 41.2424 31.3081 41.2529C31.1893 41.2638 31.0687 41.2198 30.9396 41.1122C30.6297 40.8367 30.4525 40.4164 30.4387 40.0032C30.4318 39.8219 30.4613 39.6222 30.4268 39.4707C30.3967 39.3355 30.312 39.1966 30.2185 39.0595C30.1341 38.9359 30.0425 38.8182 29.9772 38.7017C29.919 38.5983 29.8716 38.4945 29.8331 38.3987C29.7107 38.094 29.6773 37.825 29.665 37.5771C29.6099 36.5625 30.1448 35.6207 30.8403 34.8838C31.5428 34.1355 32.45 33.5209 33.4462 33.0986C34.3897 32.7014 35.778 32.4306 36.8133 32.7887C37.1507 32.9057 37.619 33.1927 37.8554 33.4911C37.9059 33.5554 37.9472 33.6219 37.9977 33.6541C38.0437 33.6839 38.163 33.6954 38.2594 33.7138C38.59 33.7711 39.0652 34.0213 39.2603 34.1866C39.6482 34.5241 39.8617 34.8454 39.9604 35.3114C40.0535 35.749 39.9777 36.2452 39.8014 36.6878C39.6147 37.1563 39.3195 37.5854 39.0032 37.9076C37.9495 38.9865 36.9074 39.7464 35.5576 40.2743C35.1272 40.4428 34.5504 40.5814 34.0992 40.634C33.8615 40.6617 33.6389 40.6702 33.4242 40.6616C33.1873 40.6521 32.9514 40.6209 32.7515 40.5842C32.7515 40.5842 32.2539 40.4829 32.0924 40.3817ZM34.3312 38.7357C34.8687 38.6837 35.3373 38.5882 35.7699 38.4512C36.0044 38.377 36.2395 38.2821 36.4681 38.172C36.9673 37.9315 37.4766 37.5811 37.8005 37.2875C37.9721 37.132 38.1207 36.9726 38.2387 36.8151C38.4739 36.5013 38.6134 36.1474 38.5693 35.7751C38.5326 35.4629 38.3283 35.2265 38.0689 35.1163C37.4956 34.8667 36.8483 35.1631 36.3794 35.4342C36.0421 35.6301 35.5317 36.0071 35.0561 36.4123C34.4929 36.8921 33.9565 37.4362 33.6202 37.8711C33.4295 38.1314 33.2347 38.3885 33.0574 38.6582C33.0847 38.7332 33.7117 38.7681 34.0584 38.7452M31.2332 37.8928C31.4165 37.6027 31.6301 37.3189 31.8352 37.0515C32.0626 36.7551 32.4568 36.3087 32.6112 36.1452C32.9547 35.7815 33.3204 35.4267 33.6346 35.1576C33.8228 34.9992 34.0361 34.818 34.0361 34.818C34.0361 34.818 33.8855 34.8208 33.6904 34.8598C33.5959 34.8781 33.4297 34.9219 33.2945 34.9716C33.1298 35.0322 32.9944 35.0887 32.8749 35.1491C32.5024 35.3374 32.1786 35.5922 32.0271 35.722C31.746 35.9638 31.4485 36.2808 31.2599 36.6242C31.1501 36.8242 31.0746 37.0357 31.0613 37.244C31.0521 37.3878 31.0734 37.5312 31.1297 37.6712C31.171 37.7699 31.2332 37.8928 31.2332 37.8928Z" fill="white"/>
<path d="M33.2964 42.4642C33.3377 42.4711 33.3997 42.4895 33.4548 42.5102C33.9276 42.6892 34.1227 43.1276 34.2398 43.6097C34.5084 44.7253 34.6232 47.1953 34.6691 48.1617C34.7012 48.8871 34.7196 49.601 34.7494 50.3195C34.7747 50.9255 34.8252 51.7335 34.6989 52.3028C34.653 52.5071 34.5153 52.7458 34.3179 52.8675C34.0952 53.0121 33.5833 53.0236 33.301 52.9639C32.61 52.8216 32.385 52.3763 32.2863 51.6922C32.0499 50.0578 32.1647 46.8487 32.3024 45.4966C32.3483 45.049 32.5159 43.6166 32.75 43.0175C32.8304 42.8132 33.0002 42.4069 33.2964 42.4642Z" fill="white"/>
<path d="M7.87754 30.6805C7.32625 30.6725 6.33039 30.6787 5.18553 30.8228C4.39864 30.9218 3.58145 31.0743 2.83044 31.2823C2.41457 31.3948 2.06776 31.5324 1.76673 31.729C1.42305 31.9536 1.14081 32.2533 0.914428 32.651C0.703241 33.0229 0.504456 33.4323 0.612345 33.8455C0.704166 34.1944 1.17804 34.3094 1.6061 34.3816C1.99175 34.4413 2.86628 34.4867 3.09813 34.2044C3.16347 34.1364 3.19293 33.9437 3.10495 33.8164C3.01772 33.6626 2.79747 33.5519 2.58628 33.5129C2.40804 33.4804 2.10864 33.4506 1.92181 33.424C1.79311 33.4057 1.72614 33.3835 1.69164 33.3652C1.68161 33.3599 1.67433 33.3549 1.66907 33.3504C1.65945 33.3423 1.65831 33.3332 1.65831 33.3332C1.65831 33.3332 1.66162 33.3243 1.6695 33.3164C1.67959 33.3064 1.69438 33.2925 1.70932 33.2817C1.8577 33.1856 2.33457 33.0504 2.45567 33.0195C3.00114 32.8681 3.8403 32.7786 4.52576 32.7429C5.20305 32.7077 5.89019 32.7076 6.4519 32.7284C8.72143 32.8008 10.9214 33.166 13.1283 33.7959C14.3243 34.1372 15.5448 34.5621 16.8371 35.0692C18.653 35.7892 20.5175 36.7744 22.2379 37.9864C23.7626 39.0606 25.1226 40.2781 26.1772 41.6236C26.8155 42.446 27.5802 43.6855 27.9619 44.8891C28.0917 45.2983 28.2024 45.7674 28.2142 46.3208C28.2256 46.857 28.144 47.4743 27.9126 48.0816C27.4775 49.224 26.5592 50.2902 25.0463 51.0809C24.4872 51.3731 23.8461 51.6295 23.119 51.8365C22.3343 52.0597 21.5255 52.203 20.7204 52.2901C19.7705 52.3928 18.8221 52.4148 17.8571 52.3892C17.7216 52.3856 17.4357 52.3687 17.111 52.3393C16.284 52.2642 15.5317 52.1352 15.0997 52.0537L14.9507 45.0664C16.034 45.0828 17.2252 45.2103 18.3489 45.4062C18.9764 45.5156 20.0354 45.7278 21.3421 46.1494C21.6042 46.2381 21.9166 46.4281 21.9419 46.7058C21.952 46.8236 21.9099 46.9265 21.8356 47.0262C21.6391 47.29 21.3165 47.487 21.0438 47.6195C20.8796 47.6992 20.7366 47.7589 20.6713 47.8326C20.6001 47.929 20.5946 48.0669 20.6933 48.145C20.8285 48.2517 21.0399 48.3272 21.2546 48.3761C22.3378 48.6229 23.0596 48.1371 23.4794 47.6756C23.9336 47.1762 24.0635 46.7888 24.1064 46.3834C24.18 45.6877 23.8622 45.1425 23.7017 44.9167C23.3031 44.3557 22.6906 43.9786 22.1968 43.7423C21.0775 43.2067 19.8 42.931 19.1516 42.8156C18.3266 42.6687 17.2766 42.55 16.0637 42.5256C15.4992 42.5142 14.9315 42.5416 14.9315 42.5416C14.9315 42.5416 14.9085 41.5936 14.8671 40.9646C14.7983 39.9294 14.5115 37.8978 13.5703 37.3125C13.3981 37.2069 13.1869 37.1955 13.0675 37.3561C12.8839 37.5949 12.7048 38.504 12.6635 38.7381C12.6242 38.9611 12.5834 39.2421 12.5448 39.5405C12.4843 40.0094 12.433 40.5322 12.3988 40.9556C12.3797 41.1912 12.3273 41.96 12.3171 42.7723C12.3056 42.7838 12.2893 42.8018 12.2733 42.8133C12.2733 42.8133 11.85 42.8771 11.3091 42.9847C9.53017 43.3386 8.29495 43.8306 7.81085 44.0431C6.94544 44.4218 5.70393 45.091 5.32704 45.969C5.2397 46.1861 5.20297 46.3223 5.19263 46.5439C5.1698 47.0333 5.34995 47.4641 5.5038 47.7381C5.91198 48.5087 6.72945 49.3399 7.41661 49.9596C7.91246 50.4068 8.63473 50.9634 9.21581 51.3603C9.68928 51.6837 10.0468 51.9118 10.3775 52.1065C10.7632 52.3335 11.1409 52.5353 11.5261 52.7186C11.7347 52.8179 11.9913 52.9433 12.2274 53.0553C12.2274 53.0553 12.2625 53.3864 12.3085 53.7654C12.3553 54.1715 12.3964 54.5833 12.558 54.9629C12.6198 55.101 12.6912 55.2239 12.7887 55.333C13.0596 55.6362 13.3645 55.6994 13.4918 55.7225C13.7505 55.7694 13.9968 55.7439 14.2565 55.695C14.3642 55.675 14.4746 55.6371 14.5599 55.5928C14.7029 55.5186 14.8136 55.4069 14.8898 55.2473C15.0046 55.0178 15.0458 54.6518 15.049 54.605C15.0632 54.3946 15.0533 54.1581 15.0533 54.1581C15.0533 54.1581 15.8882 54.3567 16.4713 54.4623C17.4276 54.6307 18.3458 54.731 19.435 54.7478C20.7493 54.768 22.1514 54.599 23.6531 54.2366C24.5608 54.0176 25.4242 53.7276 26.2678 53.3361C27.0503 52.9729 27.7499 52.5401 28.3568 52.0391C28.8125 51.6629 29.2878 51.1898 29.7458 50.5394C29.8761 50.3544 29.9913 50.1752 30.0766 50.0275C30.1028 49.9821 30.1755 49.8758 30.2718 49.7131C30.5394 49.2609 30.8716 48.5622 31.0448 47.6722C31.0914 47.4081 31.125 47.1487 31.1416 46.8889C31.2055 45.7528 30.9748 44.6079 30.5302 43.5633C30.4305 43.318 30.0746 42.4488 29.3094 41.3472C28.642 40.3863 27.8657 39.4929 27.0537 38.6825C26.5142 38.144 26.1046 37.7671 25.4091 37.1837C24.4241 36.3665 23.4846 35.7522 23.1954 35.5617C22.2402 34.9358 21.1346 34.3214 20.1646 33.8525C18.6013 33.0968 17.0736 32.5175 15.5519 32.0463C15.0237 31.8828 14.533 31.7439 14.0928 31.6268C13.1801 31.3841 11.7987 31.0505 10.3344 30.8627C9.44871 30.7491 8.59584 30.6908 7.87754 30.6805ZM12.2252 45.1792C12.2252 45.1792 12.2021 46.2123 12.1975 47.2568C12.1925 48.3355 12.2052 49.425 12.2179 50.1929C12.2284 50.8336 12.2388 51.2505 12.2388 51.2505C12.2388 51.2505 11.4945 51.0069 11.1095 50.8148C10.4027 50.5108 9.72979 50.1558 9.08767 49.7547C8.2753 49.2473 7.59314 48.7296 6.95625 48.158C6.82593 48.041 6.59603 47.8194 6.48048 47.7025C6.18874 47.4133 5.89559 47.1198 5.96514 46.7265C6.01794 46.4258 6.66144 46.1406 6.90864 46.0722C7.4969 45.9045 8.09096 45.7521 8.72006 45.6236C9.38871 45.487 10.0356 45.3815 10.5005 45.3307C11.1415 45.2327 12.2252 45.1792 12.2252 45.1792Z" fill="white"/>
</g>
<defs>
<clipPath id="clip0_399_2476">
<rect width="90.25" height="73.3539" fill="white" transform="translate(0.582031 0.529297)"/>
</clipPath>
</defs>
</svg>
