<svg width="60" height="74" viewBox="0 0 60 74" fill="none" xmlns="http://www.w3.org/2000/svg">
<g clip-path="url(#clip0_399_2472)">
<g clip-path="url(#clip1_399_2472)">
<path d="M59.5818 25.2207H0V49.2008H59.5818V25.2207Z" fill="#FF0000"/>
<path d="M50.4202 30.8088V27.1386H40.2063L38.5263 39.4005L36.8644 27.1386H33.1814L33.5938 30.4105C33.1685 29.5721 31.6603 27.1386 28.3421 27.1386C28.3202 27.1373 24.654 27.1386 24.654 27.1386L24.6398 45.0119L21.9554 27.1386L17.1316 27.1361L14.3545 45.654L14.3558 27.138H9.73921L8.07465 37.5403L6.45385 27.1386H1.83594V47.2716H5.47261V37.5674L7.12688 47.271H9.06039L10.6915 37.5674V47.271H17.7023L18.1276 44.1728H20.9504L21.3744 47.271L28.2572 47.2755H28.263V47.271H28.2675H28.272V40.7356L29.1155 40.6127L30.8624 47.2748H30.8669H34.4187H34.4225L34.4212 47.2703H34.4277H34.4322L32.1383 39.4623C33.3004 38.6033 34.6117 36.4208 34.263 34.3335V34.3322C34.2668 34.3605 36.4268 47.2838 36.4268 47.2838L40.6612 47.271L43.5548 29.0219V47.271H50.4208V43.6504H47.1618V39.0331H50.4208V35.3572H47.1618V30.8094H50.4202V30.8088ZM18.5555 40.9801L19.5541 32.3729L20.5907 40.9801H18.5555ZM29.1264 37.0057C28.8466 37.1414 28.5551 37.2096 28.2707 37.2096V30.7335C28.2758 30.7335 28.2816 30.7322 28.2887 30.7322C28.5737 30.7309 30.6971 30.8184 30.6971 33.9365C30.6964 35.5669 29.9745 36.5945 29.1264 37.0057ZM57.7469 43.6472V47.2677H51.0494V27.1348H54.6559V43.6465H57.7469V43.6472Z" fill="white"/>
</g>
</g>
<defs>
<clipPath id="clip0_399_2472">
<rect width="59.5818" height="73.3539" fill="white" transform="translate(0 0.529297)"/>
</clipPath>
<clipPath id="clip1_399_2472">
<rect width="59.5818" height="24" fill="white" transform="translate(0 25.207)"/>
</clipPath>
</defs>
</svg>
