<svg width="86" height="45" viewBox="0 0 86 45" fill="none" xmlns="http://www.w3.org/2000/svg">
<g clip-path="url(#clip0_399_4861)">
<g clip-path="url(#clip1_399_4861)">
<path d="M83.8586 20.2263C82.8283 18.8727 81.3333 18.2061 79.3333 18.2061C76.2222 18.2061 73.6364 19.3576 71.596 21.6202C69.697 23.6808 68.7879 25.9232 68.9495 28.3677C68.9495 28.5495 68.9697 28.7313 68.9899 28.9131C68.8687 28.9535 68.7879 28.9939 68.6667 29.0546C66.2424 30.1051 64 30.6303 61.9394 30.6303C60.9091 30.6303 60.1414 30.2667 59.6364 29.5596C62.4041 29.1152 64.7071 28.0242 66.5253 26.3475C68.2222 24.7919 69.0303 23.3172 68.9293 21.8626C68.7475 19.5798 67.2727 18.4485 64.4647 18.4485C61.4343 18.4485 58.8081 19.6 56.5859 21.8828C54.5657 23.9636 53.5354 26.1657 53.5152 28.4687C53.5152 28.8525 53.5354 29.2364 53.5758 29.6C53.1111 29.9232 52.7273 30.0647 52.5051 30.0647C51.9596 30.0647 51.6364 29.9434 51.4748 29.7212C51.3333 29.499 51.2727 29.095 51.2929 28.4889C51.2929 28.2667 51.4748 27.398 51.8384 25.8626C52.202 24.3273 52.3838 23.1758 52.4242 22.3879C52.4849 21.2162 52.2424 20.3273 51.7374 19.701C51.1313 18.9333 50.1414 18.6101 48.7677 18.7111C47.6162 18.7919 46.5253 19.2364 45.4748 19.9838C44.8485 20.4283 44.202 21.0545 43.5556 21.8222C43.3333 22.0242 43.1111 22.2061 42.9091 22.3879C42.9293 21.2162 42.7071 20.3273 42.2222 19.701C41.6162 18.9333 40.6263 18.6101 39.2121 18.7111C37.5758 18.8525 36.1212 19.499 34.7879 20.6303C34.2222 21.1152 33.7172 21.6808 33.2929 22.3273C33.3535 22.0849 33.3737 21.7818 33.3737 21.5192C33.3737 20.6505 33.1515 19.8626 32.6869 19.196C32.2424 18.5293 31.6364 18.2061 30.8889 18.2667C30.4646 18.2869 29.6566 18.8727 28.4444 19.9636C26.7879 21.5192 25.8788 22.3475 25.7576 22.4485L26.7879 23.6202C27.596 23.0343 28.0606 22.7515 28.2424 22.7515C28.5657 22.7515 28.6869 22.9939 28.6263 23.5192C28.6061 24.2667 28.4646 25.297 28.2222 26.6101C28.0606 27.4384 27.9798 28.1455 27.899 28.7313C27.8788 28.7313 27.8788 28.7515 27.8586 28.7515C26.8283 29.6 26.101 30.004 25.7374 30.004C24.8081 30.004 24.3838 29.398 24.404 28.1657C24.8283 25.499 25.2323 23.297 25.596 21.5394C25.7172 20.5091 25.5556 19.6808 25.1111 19.0546C24.6667 18.4081 23.9596 18.1253 23.0303 18.2263C22.4242 18.2869 21.495 18.8525 20.303 19.9232C19.8788 20.3071 19.4545 20.6909 19.0303 21.095C18.9495 19.0747 18.0202 18.0444 16.2626 17.9838C13.6162 17.903 11.8182 19.398 10.9091 22.4687C11.3939 22.2667 11.8788 22.1455 12.3232 22.1455C13.2929 22.1455 13.7172 22.6909 13.596 23.7818C13.5354 24.4283 13.1111 25.398 12.3232 26.6505C11.5152 27.903 10.9293 28.5293 10.5253 28.5293C10 28.5293 9.53535 27.5596 9.11111 25.6202C8.9697 25.0546 8.70707 23.6 8.34343 21.2364C8 19.0546 7.09091 18.0444 5.61616 18.1859C4.9899 18.2465 4.0404 18.8121 2.78788 19.8828C1.85859 20.7111 0.949495 21.5394 0 22.3677L0.888888 23.5394C1.73737 22.9333 2.24242 22.6505 2.38384 22.6505C3.0303 22.6505 3.63636 23.6808 4.22222 25.7212L5.77778 31.3778C6.54545 33.4384 7.47475 34.4485 8.60606 34.4485C10.404 34.4485 12.6061 32.7717 15.1717 29.398C16.9899 27.0343 18.1818 25.0748 18.7071 23.4586C19.4343 22.9131 19.8788 22.6505 20.0404 22.6505C20.5657 22.6505 20.8081 23.0343 20.8081 23.7818C20.8081 23.9232 20.5455 24.9737 19.9798 26.9535C19.4141 28.9333 19.1313 30.3879 19.1111 31.3374C19.0909 32.2667 19.3131 32.9939 19.7778 33.5596C20.2424 34.1253 20.9293 34.4081 21.8182 34.4081C23.7172 34.4081 25.6566 33.5798 27.5556 31.9232C27.7374 31.7616 27.899 31.6404 28.0404 31.4788C28.202 32.1253 28.4444 32.6505 28.8283 33.0546C29.6566 33.9232 31.0505 34.3475 33.0101 34.2869C32.7677 33.6606 32.6465 32.5293 32.6869 30.9535C32.7677 29.1758 33.2323 27.4788 34.0606 25.8626C34.8889 24.2263 35.6566 23.4182 36.3636 23.4182C37.1919 23.4182 37.5758 23.9636 37.5354 25.0141C37.5152 25.7414 37.3737 26.5495 37.1111 27.4586C36.8687 28.3879 36.7071 29.2768 36.6869 30.1859C36.6263 31.6404 36.9495 32.6707 37.6768 33.297C38.4647 34.0242 39.8788 34.3273 41.8586 34.2869C41.5758 33.6404 41.4343 32.6909 41.495 31.4586C41.5758 29.701 42.1616 27.9232 43.2727 26.0444C44.303 24.2667 45.1919 23.398 45.9394 23.398C46.6263 23.398 46.9495 23.9434 46.9293 25.0141C46.9091 25.7414 46.7273 26.7111 46.3838 28.0242C46.0404 29.297 45.8586 30.4081 45.8384 31.3172C45.7778 33.3778 46.6869 34.3879 48.5253 34.3879C50.4242 34.3879 52.3636 33.5596 54.2626 31.903L54.3434 31.8222L54.5455 32.1657C55.5354 33.7212 57.1919 34.4687 59.495 34.4687C62.6061 34.4687 65.6768 33.6 68.6869 31.8626C69.0303 31.6606 69.3333 31.4788 69.6566 31.2768C69.8586 31.6606 70.0606 32.0243 70.3232 32.3475C71.495 33.802 73.2121 34.5293 75.4546 34.5293C78.1616 34.5293 80.4445 33.5596 82.2828 31.6606C84.101 29.7616 85.0909 27.4788 85.1919 24.8727C85.2727 23.0343 84.8485 21.4586 83.8586 20.2263ZM58.9293 27.9434C58.9091 27.5798 58.9091 27.3778 58.9293 27.3778C58.9495 26.3071 59.4142 25.1758 60.303 23.9838C61.1717 22.7919 62.0606 22.2061 62.9091 22.2061C63.5556 22.2061 63.8788 22.5899 63.8586 23.3576C63.8384 23.9232 63.4141 24.6505 62.5859 25.5798C61.5354 26.6505 60.3232 27.4384 58.9293 27.9434ZM80.3636 24.8121C80.303 26.1859 79.899 27.499 79.1313 28.7515C78.202 30.2869 77.1111 31.0141 75.8384 31.0141C75.2525 31.0141 74.8283 30.6909 74.5051 30.0647C74.2222 29.5192 74.101 28.8929 74.1212 28.1859C74.1616 26.7313 74.6061 25.3576 75.394 24.0647C76.3434 22.4889 77.5152 21.701 78.9899 21.701C79.4344 21.701 79.798 22.0242 80.0404 22.6707C80.2626 23.3172 80.3838 24.0444 80.3636 24.8121ZM20.8687 13.6808C20.8889 12.9333 21.3333 12.2263 22.1616 11.5596C23.0101 10.8929 23.9394 10.5293 24.9697 10.5293C25.5758 10.5293 26.0606 10.7515 26.4646 11.2162C26.8687 11.6808 27.0505 12.1657 27.0303 12.6505C27.0101 13.3778 26.6465 14.0444 25.9596 14.6909C25.1919 15.4384 24.2828 15.7818 23.2323 15.7818C21.6162 15.802 20.8283 15.1152 20.8687 13.6808Z" fill="#1AB7EA"/>
</g>
</g>
<defs>
<clipPath id="clip0_399_4861">
<rect width="85.2016" height="44" fill="white" transform="translate(0 0.529297)"/>
</clipPath>
<clipPath id="clip1_399_4861">
<rect width="85.2016" height="44" fill="white" transform="translate(0 0.529297)"/>
</clipPath>
</defs>
</svg>
