<svg width="62" height="54" viewBox="0 0 62 54" fill="none" xmlns="http://www.w3.org/2000/svg">
<g clip-path="url(#clip0_399_4991)">
<path d="M22.3829 15.5462C22.3948 14.1928 23.5038 13.1137 24.8572 13.1256C26.2106 13.1376 27.2897 14.2465 27.2778 15.5999C27.2658 16.9175 26.1569 18.0324 24.8035 18.0205C23.4501 18.0086 22.371 16.8698 22.3829 15.5462Z" fill="#FAA71B"/>
<path d="M29.9726 18.1815C31.1949 17.8953 32.113 16.84 32.1309 15.5641V15.5462C32.1369 14.2703 31.2425 13.1912 30.0263 12.8812C29.907 12.8514 29.764 12.9229 29.8415 13.072C30.3423 13.9544 30.4615 14.8904 30.4556 15.5403C30.4496 16.1842 30.3065 17.1202 29.7878 17.9907C29.7103 18.1338 29.8474 18.2113 29.9726 18.1815Z" fill="#FAA71B"/>
<path d="M34.5753 19.2189C36.2865 18.8254 37.5623 17.3468 37.5922 15.5641V15.5403C37.5981 13.7576 36.352 12.2552 34.6529 11.8199C34.48 11.7782 34.2832 11.8796 34.3965 12.0823C35.094 13.3105 35.2669 14.6221 35.255 15.5224C35.2431 16.4227 35.0404 17.7343 34.319 18.9446C34.2117 19.1533 34.4024 19.2606 34.5753 19.2189Z" fill="#FAA71B"/>
<path d="M39.4941 11.1641C40.3764 12.7202 40.597 14.3836 40.5851 15.5224C40.5732 16.6671 40.3168 18.3186 39.3987 19.8568C39.2556 20.1072 39.5 20.3159 39.7147 20.2682C41.8789 19.7674 43.5006 17.8237 43.5363 15.5701V15.5403C43.5483 13.2866 41.9683 11.3787 39.816 10.8302C39.6073 10.7766 39.3569 10.9077 39.4941 11.1641Z" fill="#FAA71B"/>
<path d="M15.93 16.2017V37.0749C15.93 37.218 16.0433 37.3313 16.1863 37.3313H19.7099C19.853 37.3313 19.9663 37.218 19.9663 37.0749V16.2017C19.9663 16.0586 19.853 15.9453 19.7099 15.9453H16.1863C16.0433 15.9453 15.93 16.0586 15.93 16.2017ZM4.90611 26.1941C4.90611 25.5144 5.86004 25.0255 7.32075 25.0255C8.98416 25.0255 10.5522 25.6158 11.524 26.4505C11.7029 26.6055 11.9831 26.5578 12.1023 26.3491L13.2888 23.9822C13.3782 23.8212 13.3365 23.6185 13.1934 23.5112C11.7267 22.4082 9.74731 21.6152 7.29094 21.6152C3.26058 21.6152 1.00095 23.8689 1.00095 26.4445C1.00095 32.4483 10.117 30.3735 10.117 33.0147C10.117 33.7361 9.29419 34.3502 7.54731 34.3502C5.81234 34.3502 3.76139 33.6646 2.56898 32.7166C2.39011 32.5735 2.12778 32.6212 2.00854 32.818L0.655151 35.0657C0.559758 35.2207 0.589569 35.4174 0.726696 35.5367C2.35434 36.902 4.81071 37.7128 7.35056 37.7128C11.6075 37.7128 13.9863 35.6142 13.9863 32.7941C13.9923 26.7367 4.90611 28.6088 4.90611 26.1941ZM22.7625 21.8656V37.063C22.7625 37.2061 22.8758 37.3193 23.0189 37.3193H26.5425C26.6856 37.3193 26.7988 37.2061 26.7988 37.063V21.8656C26.7988 21.7226 26.6856 21.6093 26.5425 21.6093H23.0189C22.8818 21.6152 22.7625 21.7285 22.7625 21.8656ZM39.9333 37.063C39.9333 37.2061 40.0466 37.3193 40.1896 37.3193H43.7132C43.8563 37.3193 43.9696 37.2061 43.9696 37.063V27.1182C43.9696 24.1312 41.7875 21.5854 38.4189 21.5854C35.9089 21.5854 34.2156 22.8494 33.6075 23.9703V21.8656C33.6075 21.7226 33.4942 21.6093 33.3512 21.6093H29.8276C29.6845 21.6093 29.5712 21.7226 29.5712 21.8656V37.063C29.5712 37.2061 29.6845 37.3193 29.8276 37.3193H33.3512C33.4942 37.3193 33.6075 37.2061 33.6075 37.063V28.722C33.6075 26.8619 34.9728 25.1865 36.9045 25.1865C38.5501 25.1865 39.9273 26.0391 39.9273 28.1676V37.063H39.9333ZM46.8254 41.3437C46.7598 41.4511 46.7777 41.5882 46.8731 41.6716C48.7333 43.2456 50.7544 43.818 53.3181 43.818C57.0981 43.818 61.6114 42.1188 61.6114 36.27V22.2234C61.6114 22.0803 61.4981 21.967 61.355 21.967H57.7956C57.6526 21.967 57.5393 22.0803 57.5393 22.2234V23.9405C56.5436 22.3188 54.8265 21.5914 52.9842 21.5914C49.1089 21.5914 46.0325 24.8765 46.0325 29.8966C46.0325 34.07 48.9599 37.7128 52.9842 37.7128C54.8862 37.7128 56.329 36.8245 57.5393 35.2982V36.3714C57.5393 39.3882 55.2498 40.521 53.3122 40.521C51.4878 40.521 49.9436 40.044 48.7333 38.8456C48.62 38.7323 48.4233 38.7562 48.3398 38.8933L46.8254 41.3437ZM54.0813 33.6348C51.7918 33.6348 50.2059 32.0906 50.2059 29.4554C50.2059 26.8201 51.7978 25.1806 54.0813 25.1806C56.174 25.1806 57.5452 27.16 57.5452 29.4554C57.5452 31.7508 56.1799 33.6348 54.0813 33.6348ZM59.9062 43.818H60.1149V43.025H60.3951V42.8402H59.62V43.025H59.9062V43.818ZM61.2835 43.4305L61.4027 43.1204V43.818H61.6114V42.8462H61.3192L61.0807 43.4543L60.8423 42.8462H60.5501V43.818H60.7588V43.1204L61.033 43.818H61.1225L61.2835 43.4305Z" fill="#14ABE0"/>
</g>
<defs>
<clipPath id="clip0_399_4991">
<rect width="61.0118" height="53" fill="white" transform="translate(0.599609 0.818359)"/>
</clipPath>
</defs>
</svg>
