<svg width="145" height="54" viewBox="0 0 145 54" fill="none" xmlns="http://www.w3.org/2000/svg">
<g clip-path="url(#clip0_399_1959)">
<path d="M36.8907 19.0054C36.8907 13.2751 30.8421 10.5293 23.6394 10.5293C15.9194 10.5293 8.87587 13.9516 6.24948 19.2441C5.53319 20.6369 5.17504 22.2287 5.17504 23.7806C5.13524 25.1734 5.53319 26.5264 6.24948 27.6406C7.3637 29.2722 9.3534 30.3068 12.2583 30.3068C15.8398 30.3068 18.6652 28.3569 18.6652 24.9347C18.6652 24.9347 18.705 23.9796 17.5907 23.9796C16.6755 23.9796 16.4367 24.6163 16.4765 24.9347C16.5959 27.6008 15.0041 29.7497 12.1788 29.7497C8.99526 29.7497 7.68205 27.0437 7.68205 24.1786C7.68205 18.2891 12.139 14.3495 16.7551 12.6384C18.9437 11.8027 21.212 11.4048 23.52 11.4446C28.7728 11.4446 33.0705 13.474 33.0705 18.8462C33.0705 23.3429 29.2901 27.2029 24.7536 27.5213L24.9526 26.9244C25.8678 23.6215 27.0219 20.0002 28.8922 17.2942C29.0116 17.1351 29.1707 16.8565 29.4095 16.6177L29.1309 16.2994C28.733 16.5382 28.3749 16.8167 27.9769 17.0953C19.3019 23.8602 19.0233 42.9613 7.44329 42.9613C7.04535 42.9613 6.64741 42.9215 6.24948 42.8817C3.82205 42.4837 2.58844 40.8522 2.58844 38.6237C2.58844 38.186 2.74762 37.5493 2.74762 37.2309C2.78742 36.5942 2.23029 36.0371 1.59359 36.0371H1.47422C0.439575 36.0371 0.0018413 36.8728 0.0018413 38.0268C-0.0777464 41.3695 2.42927 43.3592 6.24948 43.7173C6.68721 43.7571 7.08514 43.7571 7.56267 43.7571C16.5959 43.7571 22.1272 36.9126 24.4751 28.6355C25.6689 28.5161 26.8627 28.2375 28.0167 27.8794C32.1553 26.7652 36.8907 23.9 36.8907 19.0054Z" fill="white"/>
<path d="M122.885 20.9951H119.702L118.985 22.6664L117.752 25.4918H116.279L115.842 26.4468H117.394L115.523 30.5456C114.21 33.4505 112.141 36.2759 110.947 36.2759C110.669 36.2759 110.509 36.1565 110.509 35.9178C110.509 35.679 110.589 35.4004 110.868 34.6841C111.226 33.8087 111.862 32.5353 112.3 31.62C112.977 30.267 114.011 28.1978 114.011 27.1631C114.011 26.1285 113.335 25.2928 112.061 25.2928C110.589 25.2928 109.276 26.1683 108.082 27.4417L108.878 25.5316H105.893L103.466 31.1027C102.471 33.0526 100.481 36.3157 99.2477 36.3157C98.9692 36.3157 98.8896 36.1565 98.8896 35.878C98.9294 35.6392 98.9692 35.4402 99.0885 35.2015C99.2079 34.9627 100.641 31.5404 100.641 31.5404L103.307 25.4918H100.004L97.4172 31.3813C96.6213 33.2118 94.5918 36.3157 93.3184 36.3157C93.1195 36.3555 92.8807 36.1963 92.8807 35.9575V35.8382C92.8807 35.5198 93.1195 34.9229 93.3184 34.525L94.6714 31.5404L97.457 25.4918H94.2337L93.597 26.8846C93.1195 27.7998 92.3236 28.914 91.0502 28.914C90.4533 28.914 90.1349 28.6753 90.0155 28.4365C89.8166 26.407 88.5432 25.3326 86.6331 25.3326C84.0067 25.3326 82.0966 26.8846 80.8629 28.7947C80.0273 30.1078 79.3906 31.5404 78.9529 33.0128C77.7988 34.8831 76.605 36.3555 75.65 36.3555C75.4112 36.3555 75.252 36.2361 75.252 35.9178C75.252 35.5994 75.5704 34.8831 75.6897 34.6046L77.7988 30.1477C78.3957 28.7549 78.7937 27.8794 78.7937 26.9641C78.7937 26.0091 78.1172 25.3326 77.0427 25.3326C75.5306 25.3326 73.899 26.2081 72.5858 27.6406C72.6256 27.4019 72.6256 27.2029 72.6256 26.9641C72.6256 25.8897 72.1083 25.3724 70.9941 25.3724C69.6013 25.3724 68.1687 26.2081 66.8953 27.6804L67.731 25.6111H64.826L62.3588 31.1823C61.2048 33.8087 59.2947 36.3953 58.2601 36.3953C58.0213 36.3953 57.8621 36.2759 57.8621 35.9575C57.8621 35.4402 58.4192 34.2066 58.6182 33.6893L61.8813 26.2876C62.1201 25.7305 60.5681 25.3724 58.5784 25.3724C56.5489 25.3724 54.4398 26.3672 52.9277 27.6804C51.8532 28.5957 51.0574 29.0334 50.6594 29.0334C50.4605 29.0334 50.3809 28.914 50.3809 28.7947C50.3809 28.3569 51.4553 27.0835 51.4553 26.0887C51.4553 25.6509 51.2165 25.3326 50.6196 25.3326C49.4656 25.3326 48.0728 26.4468 47.078 27.6008L47.9136 25.5714H45.0485L42.5813 31.1425C41.4272 33.7689 39.4773 36.5147 38.4029 36.5147C38.1641 36.5147 38.005 36.3953 38.005 36.0769C38.005 35.5596 38.5223 34.3658 38.8406 33.7291L42.1037 26.3274C42.3425 25.7703 40.7905 25.4122 38.8008 25.4122C35.8561 25.4122 32.9909 27.4019 31.4788 29.4314C29.8074 31.62 28.6534 33.9679 28.6534 35.878C28.6136 37.4299 29.4095 38.385 31.0013 38.385C32.792 38.385 34.2246 36.9922 35.0204 35.9178C34.9806 36.1167 34.9409 36.3555 34.9011 36.5544C34.9011 37.6289 35.3388 38.385 36.6122 38.385C37.7662 38.385 39.2784 37.4299 40.4722 35.9178L39.4773 38.186H42.5813L45.6454 31.2619C46.6402 28.9936 47.7943 27.8396 48.1126 27.8396C48.232 27.8396 48.2718 27.8794 48.2718 27.959C48.2718 28.1978 47.7943 28.8344 47.7943 29.3916C47.7943 29.9885 48.1126 30.4262 48.9483 30.4262C49.6248 30.4262 50.3411 30.1079 51.0176 29.6701C49.4656 31.7792 48.3912 34.0076 48.3912 35.8382C48.3514 37.3901 49.1473 38.3452 50.739 38.3452C52.4104 38.3452 53.9623 36.7534 54.8378 35.679C54.798 35.9178 54.798 36.1565 54.798 36.4351C54.798 37.4697 55.3949 38.3452 56.5887 38.3452C57.9019 38.3452 58.9763 37.5095 60.2895 35.9178L59.2947 38.1462H62.4782L65.3831 31.5404C66.6565 28.6753 68.3677 27.1631 69.2431 27.1631C69.4421 27.1233 69.6411 27.2825 69.6809 27.5213V27.6008C69.6411 27.9192 69.5615 28.2375 69.4023 28.5161L65.224 38.186H68.4871L71.4716 31.4608C72.745 28.5559 74.1378 27.1631 75.2122 27.1631C75.5306 27.1631 75.65 27.3223 75.65 27.6804C75.6102 28.0386 75.5306 28.4365 75.3714 28.7549L72.5062 34.8433C72.2277 35.4402 72.0685 36.0769 72.0287 36.7136C72.0287 37.6289 72.546 38.4646 73.9786 38.4646C75.8489 38.4646 77.2417 37.0718 78.8335 34.9627V35.4004C78.9528 37.0718 79.9079 38.5441 82.3751 38.5441C85.2801 38.5441 87.6677 36.5147 89.0605 33.3312C89.5778 32.1771 89.9757 30.9833 90.0951 29.7497C90.4135 29.9089 90.7716 29.9885 91.1298 29.9487C91.6073 29.9487 92.0848 29.8293 92.5226 29.5905L92.0052 30.665C91.4083 31.8986 90.7716 33.2516 90.2941 34.3658C89.9757 35.0423 89.7768 35.7586 89.737 36.5147C89.737 37.6687 90.3737 38.4646 91.6869 38.4646C93.0001 38.4646 94.751 37.2309 96.0244 35.5198H96.0642C95.9846 35.878 95.9448 36.2361 95.9448 36.5942C95.9448 37.5493 96.2234 38.4646 97.5764 38.4646C99.1283 38.4646 100.322 37.3503 101.476 35.9575L100.481 38.186H103.665L106.251 32.3761C107.724 29.0732 109.156 27.1233 110.509 27.1233C110.748 27.1233 110.947 27.2825 110.947 27.5213V27.6008C110.947 28.1579 110.151 29.6701 109.435 31.1823C108.758 32.5751 108.281 33.6097 107.923 34.4454C107.604 35.1219 107.405 35.878 107.366 36.634C107.366 37.6289 107.923 38.4248 109.156 38.4248C111.027 38.4248 112.897 36.634 113.892 35.2811C113.653 35.9575 113.534 36.5943 113.534 37.3105C113.534 39.1809 114.648 40.0961 116.2 40.0961C117.235 40.0961 118.229 39.738 119.105 39.141C120.338 38.3054 121.294 37.032 122.129 35.878L121.572 35.3606C120.816 36.4351 119.941 37.4697 119.065 38.1064C118.588 38.5044 118.03 38.7033 117.434 38.7431C116.757 38.7431 116.359 38.385 116.359 37.5493C116.359 36.7136 116.757 35.5596 117.354 34.0076C117.394 33.9679 118.269 32.018 119.065 30.1477C119.742 28.5559 120.458 27.0039 120.577 26.6856H122.686L123.124 25.7305H121.055L122.885 20.9951ZM32.5532 36.2361C32.1155 36.2361 31.7971 36.0769 31.7971 35.48C31.8369 33.9281 33.1103 31.1425 34.7419 28.914C35.8959 27.3621 37.3683 26.2479 38.96 26.2479L36.9305 30.7446C35.4184 34.1668 33.7868 36.2361 32.5532 36.2361ZM52.3705 36.2361C51.9328 36.2361 51.6145 36.0769 51.5747 35.48C51.6145 33.9281 52.8879 31.1425 54.5194 28.914C55.6735 27.3621 57.1458 26.2479 58.7376 26.2479L56.7081 30.7446C55.1959 34.2464 53.6042 36.2361 52.3705 36.2361ZM87.5483 27.4815C87.4687 29.1926 85.9566 33.3709 84.2056 35.8382C83.4894 36.833 82.8924 37.1514 82.3353 37.1514C81.5792 37.1514 81.3803 36.5545 81.4997 35.6392C81.6588 34.0872 82.972 30.4262 84.7628 27.9192C85.5984 26.7652 86.1555 26.2876 86.7922 26.2876C87.3891 26.2876 87.5881 26.805 87.5483 27.4815Z" fill="white"/>
<path d="M136.972 25.4122L139.877 18.687H136.455L133.51 25.4122H126.188L124.955 28.2773H132.316L129.372 35.0423H132.834L135.739 28.2773H143.101L144.334 25.4122H136.972Z" fill="white"/>
</g>
<defs>
<clipPath id="clip0_399_1959">
<rect width="144.334" height="53.2278" fill="white" transform="translate(0 0.529297)"/>
</clipPath>
</defs>
</svg>
