<svg width="105" height="53" viewBox="0 0 105 53" fill="none" xmlns="http://www.w3.org/2000/svg">
<g clip-path="url(#clip0_399_4950)">
<path fill-rule="evenodd" clip-rule="evenodd" d="M8.42629 30.7059L3.75264 32.5395V27.2398C3.75264 25.1154 5.34034 23.5724 7.24111 23.5724C9.14187 23.5724 10.7296 25.1154 10.7296 27.2398C10.7519 28.5815 10.0811 30.0574 8.42629 30.7059ZM7.24111 20.5759C3.57375 20.5759 0.599609 23.5724 0.599609 27.2398V42.6695H3.75264V34.1049L4.8931 35.3348L9.52203 33.5235C12.1607 32.4948 13.8826 30.1021 13.8826 27.2621C13.905 23.5724 10.9085 20.5759 7.24111 20.5759ZM62.9224 30.9071C60.9098 30.9071 59.4339 29.2971 59.4339 27.2398C59.4339 25.1825 60.9545 23.5724 62.9224 23.5724C64.9349 23.5724 66.4108 25.1825 66.4108 27.2398C66.4108 29.2971 64.9349 30.9071 62.9224 30.9071ZM62.9224 20.5759C59.255 20.5759 56.2809 23.5724 56.2809 27.2398C56.2809 30.9071 59.255 33.9036 62.9224 33.9036C66.5897 33.9036 69.5639 30.9071 69.5639 27.2398C69.5639 23.5724 66.5897 20.5759 62.9224 20.5759ZM77.3235 23.5724C78.6875 23.5724 79.8056 24.3103 80.387 25.4508L82.8469 23.55C81.617 21.694 79.5373 20.5759 77.3011 20.5759C73.6337 20.5759 70.6596 23.5724 70.6596 27.2398C70.6596 30.9071 73.6337 33.9036 77.3011 33.9036C79.5373 33.9036 81.617 32.7855 82.8469 30.9295L80.387 29.0287C79.8056 30.1915 78.6205 30.9071 77.3235 30.9071C75.3109 30.9071 73.835 29.2971 73.835 27.2398C73.835 25.1825 75.3556 23.5724 77.3235 23.5724ZM50.3997 23.5724C51.7638 23.5724 52.8818 24.3103 53.4633 25.4508L55.9231 23.55C54.6932 21.694 52.6135 20.5759 50.3773 20.5759C46.7099 20.5759 43.7358 23.5724 43.7358 27.2398C43.7358 30.9071 46.7099 33.9036 50.3773 33.9036C52.5911 33.9036 54.6932 32.7855 55.9231 30.9295L53.4633 29.0287C52.8818 30.1915 51.6967 30.9071 50.3997 30.9071C48.3871 30.9071 46.9112 29.2971 46.9112 27.2398C46.9112 25.1825 48.4095 23.5724 50.3997 23.5724ZM35.8868 30.9071C33.8742 30.9071 32.3312 29.2971 32.3312 27.2398C32.3312 25.1825 33.8966 23.5724 35.8868 23.5724C37.8993 23.5724 39.3752 25.1825 39.3752 27.2398C39.3752 29.2971 37.8993 30.9071 35.8868 30.9071ZM39.3752 22.1636C38.3019 21.0455 36.8931 20.5759 35.3948 20.5759C32.3089 20.5759 29.1558 23.3935 29.1558 27.2398C29.1558 31.1084 32.3089 33.9036 35.3948 33.9036C36.8931 33.9036 38.3019 33.434 39.3752 32.3159V33.5235H42.5283V20.956H39.3752V22.1636ZM91.6575 26.7925H90.2487L95.7273 20.956H91.6575L87.2298 25.7191V14.1133H84.0768V33.5235H87.2298V29.9455L88.974 28.1119L92.7085 33.5235H96.5324L91.6575 26.7925ZM18.355 25.7862C18.8693 24.4669 20.0992 23.5724 21.5751 23.5724C23.0957 23.5724 24.2138 24.4892 24.6834 25.7862H18.355ZM21.5751 20.5759C17.9078 20.5759 14.9336 23.5724 14.9336 27.2398C14.9336 30.9071 17.9078 33.9036 21.5751 33.9036C23.7666 33.9036 25.8239 32.8526 27.0091 31.2202L24.4822 29.476C24.1691 29.9679 23.2075 30.9071 21.5751 30.9071C20.0545 30.9071 18.847 29.9903 18.3326 28.6933H27.9259C28.0154 28.2237 28.0824 27.7541 28.0824 27.2621C28.1048 23.5724 25.2425 20.5759 21.5751 20.5759Z" fill="white"/>
<path fill-rule="evenodd" clip-rule="evenodd" d="M102.231 31.6445C101.18 31.6445 100.33 32.4943 100.33 33.5453C100.33 34.5963 101.18 35.4684 102.231 35.4684C103.282 35.4684 104.132 34.6187 104.132 33.5453C104.132 32.4943 103.282 31.6445 102.231 31.6445Z" fill="#2B90C3"/>
<path fill-rule="evenodd" clip-rule="evenodd" d="M102.231 26.3906C101.18 26.3906 100.33 27.2404 100.33 28.2914C100.33 29.3424 101.18 30.2145 102.231 30.2145C103.282 30.2145 104.132 29.3648 104.132 28.2914C104.132 27.2627 103.282 26.3906 102.231 26.3906Z" fill="#5F5695"/>
<path fill-rule="evenodd" clip-rule="evenodd" d="M102.231 36.8789C101.18 36.8789 100.33 37.7287 100.33 38.7797C100.33 39.8307 101.18 40.7028 102.231 40.7028C103.282 40.7028 104.132 39.853 104.132 38.7797C104.132 37.7287 103.282 36.8789 102.231 36.8789Z" fill="#0EA248"/>
<path fill-rule="evenodd" clip-rule="evenodd" d="M102.231 21.1582C101.18 21.1582 100.33 22.008 100.33 23.0813C100.33 24.1323 101.18 24.9821 102.231 24.9821C103.282 24.9821 104.132 24.1323 104.132 23.0813C104.132 22.008 103.282 21.1582 102.231 21.1582Z" fill="#D82040"/>
<path fill-rule="evenodd" clip-rule="evenodd" d="M102.231 15.9258C101.18 15.9258 100.33 16.7755 100.33 17.8265C100.33 18.8776 101.18 19.7497 102.231 19.7497C103.282 19.7497 104.132 18.8999 104.132 17.8265C104.132 16.7755 103.282 15.9258 102.231 15.9258Z" fill="#E3692A"/>
<path fill-rule="evenodd" clip-rule="evenodd" d="M102.231 10.6699C101.18 10.6699 100.33 11.5197 100.33 12.5707C100.33 13.6217 101.18 14.4938 102.231 14.4938C103.282 14.4938 104.132 13.6441 104.132 12.5707C104.132 11.542 103.282 10.6699 102.231 10.6699Z" fill="#F6C82A"/>
</g>
<defs>
<clipPath id="clip0_399_4950">
<rect width="103.532" height="52" fill="white" transform="translate(0.599609 0.669922)"/>
</clipPath>
</defs>
</svg>
