<svg width="43" height="56" viewBox="0 0 43 56" fill="none" xmlns="http://www.w3.org/2000/svg">
<g clip-path="url(#clip0_399_1715)">
<path d="M7.15855 33.4331H34.0031C34.5902 33.4331 35.0825 32.9882 35.1477 32.407L37.3008 12.4486C37.4075 11.47 36.3102 10.8175 35.5036 11.3751L21.2333 21.2386C20.8417 21.5114 20.3198 21.5114 19.9224 21.2386L5.65798 11.381C4.84544 10.8175 3.74818 11.47 3.85488 12.4486L6.01387 32.407C6.0791 32.9942 6.57137 33.4331 7.15855 33.4331Z" fill="url(#paint0_linear_399_1715)"/>
<path d="M27.6858 43.3065L28.6064 42.6631C28.6831 42.6095 28.7851 42.6327 28.837 42.7096C29.2552 43.3191 29.9558 43.7194 30.9194 43.7194C31.7593 43.7194 32.2705 43.4871 32.2705 42.9866C32.2705 42.5487 31.9934 42.3789 31.2964 42.2627L29.9898 42.075C28.6921 41.8605 28.004 41.2707 28.004 40.1607C28.004 38.9614 29.0693 38.2285 30.8657 38.2285C32.1312 38.2285 33.1625 38.6074 33.7686 39.3885C33.8238 39.4582 33.8077 39.5619 33.7399 39.6173L32.957 40.2733C32.8837 40.3341 32.7746 40.3251 32.7175 40.2483C32.3152 39.7103 31.6307 39.3993 30.7655 39.3993C30.0059 39.3993 29.5573 39.6406 29.5573 40.0606C29.5573 40.4806 29.8165 40.6505 30.5493 40.7666L31.8201 40.9632C33.2073 41.1777 33.8685 41.705 33.8685 42.8329C33.8685 44.1216 32.7763 44.9349 30.846 44.9349C29.3393 44.9349 28.1898 44.3933 27.6359 43.5318C27.5876 43.4567 27.6109 43.3566 27.684 43.3065H27.6858Z" fill="white"/>
<path d="M6.16371 44.7562H4.96257C4.89107 44.7562 4.82671 44.7115 4.80348 44.6436L3.44506 40.7988C3.38249 40.6201 3.11794 40.6648 3.11794 40.8542V44.5881C3.11794 44.6811 3.04287 44.7562 2.94994 44.7562H1.88285C1.78991 44.7562 1.71484 44.6811 1.71484 44.5881V38.5735C1.71484 38.4806 1.78991 38.4055 1.88285 38.4055H3.9205C3.992 38.4055 4.05457 38.4502 4.07959 38.5181L5.45232 42.361C5.50595 42.5112 5.71864 42.5094 5.77047 42.361L7.10027 38.5181C7.12352 38.4502 7.18793 38.4055 7.25949 38.4055H9.34164C9.43467 38.4055 9.5098 38.4806 9.5098 38.5735V44.5881C9.5098 44.6811 9.43467 44.7562 9.34164 44.7562H8.18529C8.09226 44.7562 8.01734 44.6811 8.01734 44.5881V40.8525C8.01734 40.663 7.7528 40.6183 7.69018 40.7953L6.3228 44.6436C6.29956 44.7115 6.2352 44.7562 6.16371 44.7562Z" fill="white"/>
<path fill-rule="evenodd" clip-rule="evenodd" d="M18.1947 44.522L15.662 38.5092C15.6351 38.4466 15.5743 38.4055 15.5063 38.4055H13.7887C13.7207 38.4055 13.6599 38.4466 13.6333 38.5092L11.1005 44.522C11.054 44.6328 11.1343 44.7562 11.2559 44.7562H12.5769C12.6464 44.7562 12.709 44.7133 12.7341 44.6489L13.188 43.4692C13.2131 43.4049 13.2757 43.362 13.3455 43.362H15.9496C16.0193 43.362 16.0819 43.4049 16.107 43.4692L16.5609 44.6489C16.586 44.7133 16.6486 44.7562 16.7182 44.7562H18.0391C18.159 44.7562 18.241 44.6328 18.1947 44.522ZM13.8978 42.2609C13.7797 42.2609 13.6975 42.143 13.7404 42.0321L14.4929 40.0731C14.5483 39.9284 14.7521 39.9284 14.8075 40.0731L15.56 42.0321C15.6029 42.143 15.5207 42.2609 15.4028 42.2609H13.8978Z" fill="white"/>
<path d="M25.9145 38.4055H24.7671C24.6741 38.4055 24.5992 38.4806 24.5992 38.5735V42.1412C24.5992 42.3056 24.3881 42.3735 24.2935 42.2395L21.6176 38.477C21.5854 38.4323 21.5355 38.4055 21.4801 38.4055H19.9554C19.8624 38.4055 19.7873 38.4806 19.7873 38.5735V44.5881C19.7873 44.6811 19.8624 44.7562 19.9554 44.7562H21.1028C21.1959 44.7562 21.271 44.6811 21.271 44.5881V41.0026C21.271 40.8399 21.4783 40.772 21.5747 40.9025L24.3505 44.6865C24.3827 44.7311 24.4328 44.7562 24.4865 44.7562H25.9145C26.0075 44.7562 26.0827 44.6811 26.0827 44.5881V38.5735C26.0827 38.4806 26.0075 38.4055 25.9145 38.4055Z" fill="white"/>
<path fill-rule="evenodd" clip-rule="evenodd" d="M39.4149 38.5092L41.9477 44.522C41.9942 44.6328 41.9121 44.7562 41.7922 44.7562H40.4713C40.4015 44.7562 40.3391 44.7133 40.3141 44.6489L39.8601 43.4692C39.8351 43.4049 39.7725 43.362 39.7027 43.362H37.0984C37.0289 43.362 36.9662 43.4049 36.9412 43.4692L36.4872 44.6489C36.4622 44.7133 36.3996 44.7562 36.3298 44.7562H35.0091C34.8874 44.7562 34.8069 44.6328 34.8535 44.522L37.3862 38.5092C37.413 38.4466 37.4739 38.4055 37.5418 38.4055H39.2595C39.3275 38.4055 39.3881 38.4466 39.4149 38.5092ZM37.6507 42.2609H39.1557C39.2738 42.2609 39.3561 42.143 39.3132 42.0321L38.5607 40.0731C38.5052 39.9284 38.3015 39.9284 38.246 40.0731L37.4935 42.0321C37.4506 42.143 37.5329 42.2609 37.6507 42.2609Z" fill="white"/>
</g>
<defs>
<linearGradient id="paint0_linear_399_1715" x1="4.50143" y1="25.6336" x2="38.6115" y2="18.0654" gradientUnits="userSpaceOnUse">
<stop stop-color="#C1984D"/>
<stop offset="0.5" stop-color="#DDC165"/>
<stop offset="1" stop-color="#E8DBB1"/>
</linearGradient>
<clipPath id="clip0_399_1715">
<rect width="42" height="55" fill="white" transform="translate(0.839844 0.529297)"/>
</clipPath>
</defs>
</svg>
