<svg width="80" height="45" viewBox="0 0 80 45" fill="none" xmlns="http://www.w3.org/2000/svg">
<g clip-path="url(#clip0_399_4924)">
<path d="M55.3572 34.0865V31.4528C56.6618 33.3704 58.9873 34.669 61.6985 34.669C66.5311 34.669 69.1742 31.3193 69.1742 24.6199C69.1742 18.6123 66.2475 14.5951 61.846 14.5951C59.0554 14.5951 56.7639 15.8087 55.3572 17.787V10.5657H46.5883V34.1107H55.3572V34.0865ZM60.5074 24.9112C60.5074 27.8118 59.3957 29.3896 57.7962 29.3896C56.208 29.3896 55.0509 27.7997 55.0509 24.9112C55.0509 22.0227 56.174 20.4206 57.7962 20.4206C59.4184 20.4206 60.5074 22.0105 60.5074 24.9112ZM23.3671 15.5417V28.1759C23.3671 32.5087 25.8401 34.6326 29.7764 34.6326C32.9187 34.6326 35.1081 33.2369 36.424 30.8945V34.0986H44.9321V15.5417H36.1631V26.5618C36.1631 28.2852 35.0287 28.9891 33.9737 28.9891C32.9187 28.9891 32.1133 28.3094 32.1133 26.6953V15.5417H23.3671ZM70.5469 15.5417H79.3045V34.05H70.5469V15.5417ZM22.0965 19.5711C22.0965 22.3139 20.0092 24.5349 17.4455 24.5349C14.8704 24.5349 12.7944 22.3139 12.7944 19.5711C12.7944 16.8282 14.8817 14.6072 17.4455 14.6072C20.0092 14.6072 22.0965 16.8282 22.0965 19.5711ZM12.0457 14.5465V23.9038C12.0571 26.1977 13.1234 27.1443 15.2447 27.1443C15.9821 27.1443 16.969 26.9623 17.4455 26.5618V33.334C15.8346 34.1835 14.5981 34.6569 12.4087 34.6569C12.4087 34.6569 12.1819 34.6569 11.8188 34.6326L11.8075 34.6569C6.50985 34.6569 3.57174 31.028 3.6625 25.2267V23.5761H0.599609V15.5296H3.61712V10.5293H12.0457V14.5465Z" fill="#F3E600"/>
</g>
<defs>
<clipPath id="clip0_399_4924">
<rect width="78.7048" height="44.1397" fill="white" transform="translate(0.599609 0.529297)"/>
</clipPath>
</defs>
</svg>
