<svg width="256" height="256" viewBox="0 0 256 256" fill="none" xmlns="http://www.w3.org/2000/svg">
<g clip-path="url(#clip0_597_1403)">
<path d="M240 0H16C7.16344 0 0 7.16344 0 16V240C0 248.837 7.16344 256 16 256H240C248.837 256 256 248.837 256 240V16C256 7.16344 248.837 0 240 0Z" fill="#111111"/>
<path d="M80 53.6985C80 50.5513 82.5512 48 85.6984 48H102.898C106.046 48 108.597 50.5513 108.597 53.6985V202.302C108.597 205.449 106.046 208 102.898 208H85.6984C82.5512 208 80 205.449 80 202.302V53.6985Z" fill="white"/>
<path d="M152.73 53.6985C152.73 50.5513 155.282 48 158.429 48H175.629C178.776 48 181.327 50.5513 181.327 53.6985V202.302C181.327 205.449 178.776 208 175.629 208H158.429C155.282 208 152.73 205.449 152.73 202.302V53.6985Z" fill="white"/>
<path d="M116.367 53.6985C116.367 50.5513 118.918 48 122.066 48H139.266C142.413 48 144.964 50.5513 144.964 53.6985V196.494C144.964 199.642 142.413 202.193 139.266 202.193H122.066C118.918 202.193 116.367 199.642 116.367 196.494V53.6985Z" fill="white"/>
</g>
<defs>
<clipPath id="clip0_597_1403">
<rect width="256" height="256" fill="white"/>
</clipPath>
</defs>
</svg>
